<?xml version="1.0" standalone="no"?>
<!DOCTYPE svg PUBLIC "-//W3C//DTD SVG 1.1//EN" "http://www.w3.org/Graphics/SVG/1.1/DTD/svg11.dtd" >
<svg xmlns="http://www.w3.org/2000/svg" xmlns:xlink="http://www.w3.org/1999/xlink" version="1.1">
<metadata>
Created by FontForge 20201107 at Tue Feb 18 14:49:41 2025
 By 
Copyright (c) 2018 by Anata Sholeha. All rights reserved.
</metadata>
<defs>
<font id="Moonlight-Regular" horiz-adv-x="806" >
  <font-face 
    font-family="Moonlight Regular"
    font-weight="400"
    font-stretch="normal"
    units-per-em="2048"
    panose-1="0 0 0 0 0 0 0 0 0 0"
    ascent="1638"
    descent="-410"
    x-height="800"
    cap-height="1614"
    bbox="-446.133 -1065.36 2249.53 2039.47"
    underline-thickness="102"
    underline-position="-204"
    unicode-range="U+000D-FB00"
  />
<missing-glyph horiz-adv-x="614" 
 />
    <glyph glyph-name="f_f" unicode="ff" horiz-adv-x="700" 
d="M12 246q129 -21 195 -21v6q15 94 39 187q20 89 57 186q26 80 76 178q47 88 102 162q11 19 33 19q22 -5 29 -11q10 -6 18 -26q3 -17 -6 -29q-112 -130 -172 -305q-64 -186 -90 -371q73 3 129 35q49 23 102 72q17 18 48 54.5t36 41.5q16 24 80 102q12 15 25 6q8 -8 -2 -24
q-50 -60 -86 -107q-52 -66 -90 -102q-47 -47 -109 -76q-59 -30 -139 -33v-12q28 -35 49 -90q18 -42 37 -119q16 -57 26 -139q9 -70 15 -141q11 -235 -15 -367q-15 -63 -32.5 -91.5t-40.5 -27.5q-42 3 -86 127q-45 118 -60 367q-8 113 -2 246q4 90 23 247q-76 5 -197 25v-12
q24 -31 51 -92q24 -59 37 -119q17 -75 25 -137q12 -93 14 -142q15 -238 -14 -368q-30 -120 -74 -117q-41 0 -86 127q-44 125 -59 364q-8 114 -2 248q6 129 24 254q-30 5 -35 6q-15 0 -30 6q-7 0 -7 19q0 15 13 12q11 -4 30 -6q16 -2 35 -2q6 45 37 184q26 106 57 189
q23 69 78 178q53 97 103 160q11 20 30 20t31 -12q14 -11 17 -25q3 -15 -7 -28q-108 -129 -172 -306q-61 -180 -88 -370zM281 135q-16 -127 -19 -227q-2 -77 2 -213q9 -239 33 -338q8 -33 16.5 -54t16 -28.5t14.5 -3.5q25 12 37 121q16 122 2 295q-5 98 -31 245
q-24 119 -71 203zM-2 158q-14 -133 -14 -226q-3 -113 0 -215q6 -245 32 -335q12 -51 23.5 -73t23.5 -16q25 13 37 123q13 125 2 295q-11 152 -32 246q-23 120 -72 201z" />
    <glyph glyph-name="t_t" unicode="tt" horiz-adv-x="845" 
d="M387 1061q124 -24 259 -29.5t275.5 10.5t265 69.5t202.5 139.5q39 43 58.5 111.5t5 136t-68.5 96.5q-13 7 -14.5 16.5t6.5 14.5t19 0q65 -33 85 -110t-1.5 -155.5t-67.5 -129.5q-80 -89 -207 -144.5t-269.5 -73.5t-281 -13.5t-266.5 28.5q0 -32 0.5 -160.5t1 -183
t3.5 -164t7 -172t12.5 -135t20.5 -119.5q43 -157 113 -74q68 83 157 247t138 274q5 11 14 11.5t14 -7.5t0 -17q-177 -391 -303 -530q-44 -47 -81.5 -57t-61.5 7.5t-43.5 57t-29.5 78t-17 82.5q-69 -101 -128 -130.5t-99 10t-60 138.5q-23 116 -33.5 291t-9 328.5t1.5 306.5
q-392 59 -401 -160q-1 -19 -16 -20q-13 0 -15 12v4q7 257 432 195q0 248 -14 305q-7 31 24 48q30 17 48 -1q8 -8 10 -20q10 -50 14 -345q33 -6 70 -14.5t80.5 -18.5t68.5 -16q0 220 -14 277q-5 22 14 39t42 14t28 -29q12 -66 12 -319zM86 1096q0 -484 11 -656t34 -260
q55 -199 195 31q-12 95 -17.5 214t-5.5 196t1 226t1 200q-154 38 -219 49z" />
    <glyph glyph-name="H_t" unicode="Ht" horiz-adv-x="1679" 
d="M248 -264q52 172 59 567q-108 20 -159 116t-17 218q3 13 12.5 16t16 -4.5t2.5 -21.5q-29 -109 12 -190.5t133 -100.5q5 188 -8 422q-25 462 -91 659q-36 107 -77 95q-2 0 -4 -1q-45 -35 -88 -118q-10 -18 -24 -12q-13 6 -3 22q49 107 105 137q151 109 231 -231
q70 -291 75 -805q1 -104 -1 -168q177 32 452 274q4 519 33 846q2 27 43 46q46 21 71 0q16 -14 11 -46q-16 -107 -25.5 -253.5t-12 -235t-5.5 -256.5q28 26 83 78.5t83 78.5q4 102 1.5 236.5t-17.5 236.5q-3 23 15.5 39.5t40 13.5t26.5 -30q12 -66 12 -418q169 162 293 262
t237 146q50 21 95 31t85.5 6t69 -23.5t45 -60.5t15.5 -101q0 -12 -7.5 -16.5t-15.5 0.5t-8 16q1 66 -20 103.5t-60 46.5t-84.5 1t-101.5 -32q-113 -46 -241 -149.5t-302 -270.5q0 -183 2 -300.5t12 -261.5t29 -220q10 -39 22 -63t25.5 -32.5t28 -7t29 12.5t29 27t27.5 35.5
t25 38.5t22 36q1 1 1 2q96 155 186 360q4 9 12.5 10t14 -6t0.5 -18q-95 -207 -187 -360q-241 -397 -321 -41q-44 195 -36 666q1 31 1 44q-26 -25 -82.5 -77.5t-85.5 -79.5q-1 -73 -1.5 -113t0.5 -179.5t5 -239.5t14.5 -247.5t25.5 -252t41.5 -204.5t60.5 -151
q76 -110 188 23q78 92 135 242q14 39 21 67q2 6 9.5 7t14 -4t4.5 -13q-14 -58 -37.5 -118.5t-55.5 -115.5t-69 -98t-80 -64t-85.5 -17.5t-88 46t-85.5 123.5q-38 79 -65 199.5t-39 248t-19.5 269.5t-6.5 263t0 228q-273 -233 -454 -264q-7 -410 -76 -575q-22 -50 -54 -81.5
t-67.5 -39.5t-72.5 19.5t-64 90.5q-6 17 8 22.5t23 -11.5q21 -49 43 -68t45 -1.5t43 75.5z" />
    <glyph glyph-name="A_t" unicode="At" horiz-adv-x="1802" 
d="M37 571q-15 -109 103 -103q113 4 372 128l16 8q225 653 342 871q39 79 69.5 104.5t56 -4.5t44.5 -121q12 -50 22 -116t17 -134.5t11.5 -121.5t8.5 -107.5t5 -63.5q4 2 78.5 49t113.5 70q0 238 -14 305q-6 22 12 38.5t39.5 13.5t26.5 -29q8 -51 12 -281q361 215 555 250
q269 52 322 -188q3 -19 -11 -22t-18 16q-50 212 -289 167q-191 -37 -559 -258q0 -465 10 -627q21 -363 100 -362q17 1 38 19q36 32 76 90.5t82 141.5t62.5 126.5t55.5 120.5q5 9 13.5 10t13.5 -6t0 -16q-193 -420 -314 -523q-34 -30 -63.5 -32t-50.5 21t-35.5 54t-24.5 72
q-22 90 -32.5 213t-11.5 204.5t1 242t2 206.5q-107 -69 -188 -116q52 -580 115 -908q137 -705 359 -689q7 0 13 1q148 25 250 367q6 14 19.5 10t9.5 -22q-78 -261 -207 -361q-295 -223 -474 339q-119 372 -185 1122q-6 61 -7 75q-166 -94 -446 -231q-142 -420 -215 -543
q-66 -113 -127 2q-42 79 -64 233q-1 11 6 16.5t14.5 2.5t8.5 -14q22 -152 60 -226q16 -29 28.5 -36t22.5 1.5t26 34.5q73 124 203 512q-203 -95 -309 -119q-208 -47 -202 104q1 12 3 26q2 12 10 15.5t14.5 -3t4.5 -19.5zM995 848q-43 470 -77 558q-22 57 -48 3
q-23 -46 -46 -98.5t-40.5 -92.5t-42 -103t-36.5 -94.5t-38 -104t-33.5 -94t-35.5 -104t-33 -95.5q268 129 430 225z" />
    <glyph glyph-name="P_r" unicode="Pr" horiz-adv-x="1748" 
d="M215 1569q19 6 36.5 -6t31 -39t24 -54.5t19.5 -65.5t13 -58.5t9 -46.5q1 -8 2 -11q40 46 86 90.5t103 87.5t112 71.5t110.5 36.5t101.5 -10.5t82.5 -77t55.5 -155.5q20 -119 19 -250t-33.5 -272.5t-89.5 -241.5q64 -34 114.5 -38.5t89 20.5t66 63t56.5 99
q-79 54 -117 125q-20 36 -27 59q-28 90 15 147q34 45 84 33q59 -13 90 -100q18 -49 18 -111t-14 -102q-9 -27 -15 -41l5 -2q67 -41 147 -68q43 -14 53.5 -64t12.5 -179q0 -3 -0.5 -26t-1 -57t-0.5 -65q3 -50 6 -108q9 -104 40 -76q5 5 11 14q60 96 205 461q4 9 11.5 10.5
t12 -5t0.5 -17.5q-149 -374 -207 -463q-13 -22 -27 -33t-20 -12.5t-20 -3.5q-21 -1 -37 13t-25 39t-15 59.5t-7.5 74t-2 83t0.5 87.5q0 200 -10 237q-2 8 -5 13q-85 28 -137 63q-34 -69 -66.5 -111t-75.5 -66.5t-97.5 -17.5t-124.5 44q-15 -21 -27 -39q-35 -39 -55 -53
q-83 -65 -155.5 -3.5t-115.5 201.5q-13 42 -18.5 72t-2.5 46.5t9.5 25t21.5 6t30 -8.5t37.5 -20.5t41 -27.5t43.5 -33q82 -66 127 -97q53 142 78.5 341t3 370.5t-99.5 208.5q-45 21 -114.5 -8t-138.5 -87.5t-116 -105t-76 -80.5l2 -16q73 -449 41 -1069q0 -6 -1.5 -44.5
t-4 -77t-7 -92t-12.5 -100t-20 -89.5t-30 -71.5t-41 -35.5q-53 -17 -101 36t-79 141t-55 191.5t-34.5 184t-11.5 121.5q-9 466 260 846q-30 243 -74 299q-21 26 -71 -133q-1 -5 -2 -7q-3 -9 -10.5 -10t-12.5 5t-2 14q64 205 125 223zM1163 1049q-18 -12 -24.5 -46t-1 -77
t31.5 -94t68 -91q2 5 5 14.5t5 14.5q11 38 11 91t-13 97q-14 44 -36.5 67.5t-45.5 23.5zM225 -281q43 22 63.5 270t14 573t-34.5 575q-252 -367 -237 -828q2 -64 42 -249q69 -323 133 -343q10 -3 19 2zM809 590q-14 9 -135 98q-97 77 -120 71q-26 -7 7 -100
q51 -140 107 -186q72 -47 141 117z" />
    <glyph glyph-name="a_a" unicode="aa" horiz-adv-x="1255" 
d="M563 162q-28 -102 -51 -170q-23 -61 -60 -50q-35 11 -52 69q-9 29 -9 63q0 32 6 108t6 119q-28 -62 -51 -106q-31 -61 -61 -101q-65 -80 -123 -86t-98 43q-38 47 -54 146q-13 96 11 217q20 98 57 176q39 85 96 145q61 58 133 72q76 12 160 -39q18 -9 8 -23q-6 -16 -24 -2
q-69 40 -123 21q-56 -21 -98 -78q-46 -67 -70 -139q-29 -88 -43 -166q-17 -103 -14 -186q6 -81 26 -119q20 -39 55 -33t78 70q44 61 72 125q8 22 23.5 56.5t21.5 49.5q20 44 37 68q18 24 43 14q13 -7 16 -43q5 -32 2 -90q0 -55 -6 -113q-4 -73 -8 -112q-9 -88 -2 -88
q11 1 90 317q3 48 12 100q19 94 58 176q42 89 96 146q60 57 133 69q75 15 162 -36q14 -11 8 -25q-9 -12 -27 0q-68 39 -122 21q-58 -22 -97 -78q-43 -58 -71 -140q-29 -89 -43 -165q-18 -126 -13 -187q3 -76 25 -119q20 -38 55 -32q39 6 78 69q44 61 72 125q8 21 23.5 56.5
t21.5 50.5q24 49 39 67q15 25 41 15q12 -6 18 -43q2 -25 2 -91q-2 -44 -6 -112q-4 -38 -8 -113q-4 -35 -4 -86q3 -35 12 -35q12 0 29 39q31 64 43 94q2 6 20 54t27 76q8 28 25.5 79t19.5 58q6 20 20 60t19 59q13 46 24 75q7 21 23 15q12 -6 6 -27q-22 -62 -29 -88
q-6 -17 -18 -54.5t-19 -58.5q-2 -7 -18 -54.5t-25 -72.5q-18 -56 -45 -118q-8 -21 -23.5 -55.5t-19.5 -43.5q-19 -40 -43 -57q-8 -8 -12 -10q-38 -12 -55 8q-20 17 -29 59q-8 50 -8 88q0 37 4 99q2 36 6 82q2 27 2 49q-21 -49 -51 -107t-61 -100q-65 -80 -123 -86
q-59 -6 -99 43q-34 46 -49 127z" />
    <glyph glyph-name="P_t" unicode="Pt" horiz-adv-x="1609" 
d="M1190 1040q114 -19 234.5 -21t245 14t235 65t180.5 127q36 40 55.5 104t6 127t-65.5 90q-11 5 -13 13.5t5 13.5t18 0q62 -31 80 -102.5t-2 -144.5t-62 -120q-73 -80 -186.5 -131t-240.5 -68t-250 -15t-240 22q0 -28 0.5 -202t2 -248.5t8.5 -192t20 -187.5q9 -49 21 -79.5
t25 -42.5t28.5 -9.5t30.5 15.5t32.5 35.5t33.5 47.5t34 54q1 1 1 2q90 146 175 332q4 9 11.5 10t11 -5.5t-0.5 -15.5q-82 -187 -172 -335q-27 -45 -53 -80.5t-55.5 -66t-56 -41.5t-51 -6.5t-45.5 39t-36 95.5q-22 90 -32.5 219.5t-11.5 215.5t1 251t2 207q-72 12 -102 16
q-12 -208 -51 -331q-86 -270 -210 -304q-87 -23 -163 72q-74 92 -91 226q-21 157 54 250q8 10 16 18q108 106 338 102q4 100 -3 183t-26 150t-55.5 101t-87.5 25q-51 -8 -107.5 -38.5t-109 -75t-94 -86.5t-80.5 -87q35 -208 47 -464.5t4 -490.5t-31 -466q-11 -99 -40 -150.5
t-68 -51.5t-83 41.5t-85 119.5q-80 151 -104.5 336.5t2.5 368.5t95 359t169 320q-27 205 -43 256q-35 116 -92 -37q-10 -27 -21 -63q-3 -8 -10.5 -9.5t-13 4.5t-2.5 15q44 133 85 188.5t74.5 36t61 -89.5t49.5 -188q207 237 395 283q55 13 99.5 1.5t73.5 -42t51.5 -73.5
t32.5 -93t17.5 -102t7 -100t-0.5 -87q30 -2 102 -14q0 15 0.5 51t0.5 57t-2 50.5t-7 52.5q-8 27 22 43q29 16 45 -3q5 -6 7 -16q10 -59 10 -250zM256 -190q35 207 33.5 608t-35.5 712q-94 -141 -157 -311t-87 -346.5t0.5 -354.5t100.5 -323q25 -48 43 -73.5t37.5 -34
t35.5 22t29 100.5zM903 1049q-211 0 -311 -97q-79 -77 -67 -226q10 -124 71 -211q59 -84 122 -64q99 32 150 305q24 124 35 293z" />
    <glyph glyph-name="j_j" unicode="jj" horiz-adv-x="538" 
d="M115 932q0 33 26 39q27 3 47 -8q7 -3 17 -17q4 -9 8 -31q2 -12 -2 -32q-4 -15 -18 -21q-29 -12 -43 -8q-17 3 -23 14q-10 13 -10 29q-2 10 -2 35zM-59 -981q-46 -35 -97 -35q-65 3 -110 66q-29 49 -39 100q-11 58 -11.5 117t4.5 109.5t23.5 110t34 102t48.5 103
t53.5 95.5t62.5 97t62.5 90.5t66.5 91.5q-9 155 -29 360q-16 161 -39 322q-3 20 6 32q12 9 31 6q16 0 31 -12q13 -10 16 -24q7 -59 35 -256q15 -112 35 -334q13 16 40 45t40 45q-3 41 -17 176q-16 164 -36 322q-6 20 6 32q12 9 28 6q16 0 31 -12q16 -10 16 -24
q5 -36 16.5 -123t18.5 -133q17 -128 21 -168q31 29 79.5 74.5t85 78.5t78.5 68q3 1 7.5 4t6.5 3.5t5 0.5t6 -2q17 -10 0 -27q-166 -146 -264 -243q14 -152 22 -324q9 -129 9 -260q0 -123 -13 -256q-13 -130 -45 -209q-43 -124 -110 -188q-68 -62 -133 -62q-48 3 -82 35z
M41 -602q13 123 16 227q0 116 -6 230q-2 45 -5.5 94t-4.5 67q-35 -49 -61.5 -88.5t-63 -97.5t-63 -108.5t-55 -111t-45.5 -117t-28.5 -115.5t-9.5 -116.5t17 -109.5q24 -83 67 -110q46 -26 101 8q57 39 93 144t48 204zM209 205q-13 -16 -28.5 -33.5t-31.5 -34.5t-20 -22
q2 -36 8 -156q8 -115 8 -260q0 -133 -12 -256q-13 -130 -45 -209q-43 -124 -113 -188l5 -4q46 -26 98 8q52 37 92 143q34 90 49 205q14 102 17 227q2 225 -27 580zM-63 932q0 33 24 39q27 3 49 -8q9 -4 15 -17q6 -9 10 -31q0 -22 -2 -32q-3 -14 -21 -21q-27 -12 -43 -8
q-17 3 -22 14q-8 16 -8 29q-2 10 -2 35z" />
    <glyph glyph-name="k_k" unicode="kk" horiz-adv-x="1304" 
d="M23 -285q-2 36 -9.5 141t-11.5 169q-6 121 -10 376q0 178 10 406q11 195 43 397q40 222 88 352q52 157 139 271q71 86 129 106q56 24 95 -4q38 -27 53 -98q15 -70 0 -168q-28 -166 -135 -424q-108 -259 -338 -641q-4 -82 -4 -121v-115q59 62 121 121q25 23 69.5 66
t54.5 53q17 20 27 6q11 -9 -6 -26l-135 -129q-84 -77 -131 -131v-82q100 -100 190 -179q77 -59 127 -71q55 -12 92 20q37 37 64 78q0 -21 4 -49q-19 -27 -45 -53q-45 -42 -101 -33q-57 6 -139 63q-83 64 -192 181q3 -173 12 -293q2 -44 5.5 -106t4.5 -81q0 -16 -8 -24
q-9 -12 -25 -12q-14 -3 -26 6q-8 6 -12 28zM293 1759q-58 -103 -103 -252q-37 -130 -63 -284q-27 -167 -35 -293q-12 -194 -14 -275q212 362 311 605q103 244 131 403q13 91 2 152q-12 64 -41 90q-37 19 -80 -9q-45 -30 -108 -137zM537 -346q-12 177 -19 309q-9 179 -12 377
q0 196 12 405q7 157 41 398q36 199 88 352q56 161 141 268q66 84 127 109q57 21 97 -6q35 -24 51 -97q15 -72 0 -170q-27 -159 -135 -423q-120 -284 -338 -639q-4 -82 -4 -123v-113q80 80 123 119q50 46 122 121q18 15 27 6q12 -12 -6 -27q-21 -21 -66.5 -64.5t-68.5 -66.5
q-81 -70 -131 -131v-82q124 -121 190 -176q77 -62 127 -74q54 -12 92 21q35 30 80 106q51 92 92 187q40 82 136 256q9 24 22 14q15 -8 2 -27q-110 -216 -125 -247q-63 -136 -96 -191q-45 -82 -86 -123q-45 -39 -102 -33q-58 6 -140 66q-77 56 -192 180q3 -175 12 -295
q6 -119 12 -184q0 -17 -10 -27q-9 -9 -25 -12q-11 -2 -24 8q-10 8 -14 29zM809 1696q-62 -110 -104 -252q-43 -157 -64 -285q-24 -148 -33 -293q-13 -157 -16 -274q209 358 311 604q109 261 131 403q13 92 2 154q-13 68 -41 88q-31 19 -80 -8q-49 -32 -106 -137z" />
    <glyph glyph-name="l_l" unicode="ll" horiz-adv-x="722" 
d="M307 1706q66 98 146 162q75 60 139 74q57 14 110 -15q18 -10 37 -33q59 37 103 48q60 13 112 -15q49 -27 64 -92q18 -65 0 -172q-14 -100 -82 -248q-41 -91 -119 -213q-72 -107 -158 -223q-77 -101 -170 -215q-12 -15 -39.5 -47t-41.5 -49q-15 -19 -64 -72l-18 -25v-39
v-79q1 -17 2 -54.5t2 -56.5q0 -3 2 -50t4 -71q12 -148 35 -233q19 -79 47 -101q21 -24 53 4q31 25 59 82q42 82 60 133q23 56 53 156q33 113 43 156q6 21 12 43.5t11 45t8 32.5q3 16 16 16q14 -3 8 -20q0 -1 -3.5 -15.5t-7 -33.5t-7.5 -40q-7 -26 -43 -159
q-49 -160 -57 -185q-38 -103 -74 -161q-31 -56 -55 -78q-29 -29 -60 -29q-30 0 -59 29q-36 41 -58 106l-2 4q-12 -24 -18 -32q-29 -52 -57 -78q-23 -29 -58 -29q-33 0 -59 29q-29 34 -60 106q-29 72 -49 195q-15 111 -18 239q-6 236 24.5 478t98.5 448q62 199 188 377z
M707 1868l4 4q-12 19 -31 31q-44 21 -100 -2q-55 -24 -134 -113q-72 -83 -153 -240q-59 -111 -105 -243q-82 -241 -112 -924q57 49 170 162q1 19 3 59.5t3 59.5q9 132 24 258q30 214 95 409q68 207 188 377q74 105 148 162zM328 625q27 31 65 69q16 18 46 55t44 54
q133 166 162 205q72 92 150 211q64 102 114 204q57 129 74 224q17 93 4 163q-16 67 -55 93q-42 22 -101 -2q-57 -26 -131 -113q-72 -81 -155 -240q-66 -131 -105 -243q-48 -150 -73 -287q-15 -102 -27 -201q-3 -29 -5 -61.5t-4 -70.5t-3 -60zM246 494q-46 -46 -172 -160
q0 -211 33 -353q46 -197 138 -68q26 38 56 103q-24 72 -35 148q-13 98 -20 239v91z" />
    <glyph glyph-name="O_r" unicode="Or" horiz-adv-x="1896" 
d="M723 45q175 106 348 286t270 367q-59 45 -98 90q-42 58 -59 121q-18 73 4 121q25 49 61 57q39 12 82 -20q45 -31 66 -109q13 -69 8 -131q0 -55 -25 -118q23 -19 60 -33l63 -27q30 -12 58 -24q21 -10 30 -35q12 -29 15 -72q4 -70 4 -139q0 -80 2 -129q0 -46 8 -160
q5 -91 32 -68q7 6 15 19q32 53 78 156q89 208 117 274q2 11 12 37q15 35 16 37q8 20 23 14q11 -6 6 -22q-109 -268 -135 -328q-49 -117 -92 -182q-21 -39 -52 -54q-26 -10 -45 0q-20 13 -34 41q-17 31 -23 70q-12 53 -12 125q0 23 -1 70.5t-1 72.5q3 117 6 162q3 55 -8 72
q-9 24 -43 41q-22 9 -113 57q-85 -197 -301.5 -410t-390.5 -286q-53 -53 -82 -76q-77 -68 -168 -92q-99 -27 -170 -4q-70 24 -123 86q-46 51 -84 149q-30 88 -45 191q-14 95 -14 211q3 115 14 204q5 35 23 111q12 65 38 127q23 64 58 127q27 56 76 108q36 44 94 82
q55 30 110 33q21 0 21 -12q0 -11 -23 -14q-83 -6 -147 -70q-55 -50 -113 -150q-48 -98 -73 -182q-30 -104 -35 -164q-14 -112 -11 -200q0 -68 13 -205q16 -105 45 -185q28 -81 78 -137q50 -53 110 -67q67 -13 144 32q81 44 172 146q82 105 159 237q79 146 131 291
q66 163 91 307q25 139 28 250q3 117 -22 215q-25 97 -82 160q-59 71 -152 86q-128 33 -256 -12q-125 -50 -229 -135q-13 -13 -23 0q-10 10 9 22q63 50 124 84q56 33 138 57q78 22 149 25q76 3 150 -18q115 -35 182 -111q65 -74 96 -178q33 -98 33 -217q3 -96 -12 -219
q-11 -70 -43 -179q-18 -74 -74 -208q-52 -125 -105 -220q-55 -102 -129 -202q-2 -2 -22 -27zM1251 922q8 -43 35 -99q26 -54 70 -92q16 35 22 103q6 55 -8 114q-15 58 -41 84q-26 30 -45 27q-24 -3 -33 -35q-12 -34 0 -102z" />
    <glyph glyph-name="A_r" unicode="Ar" horiz-adv-x="1988" 
d="M1182 338q172 188 254 350q-56 38 -99 90q-43 49 -59 117q-19 79 4 123q21 48 61 57t82 -20q43 -30 64 -109q16 -67 10 -131q-3 -62 -26 -117q29 -21 59 -34q52 -22 67 -29q26 -9 54 -23q20 -9 33 -34q11 -31 14 -72q2 -31 2 -139q0 -17 1 -60t1 -69q4 -110 8 -160
q6 -112 47 -47q42 66 80 153q75 173 117 277q4 15 12 37q3 8 8 21t6 16q9 19 23 12q12 -6 6 -21q-63 -164 -133 -327q-61 -138 -92 -185q-29 -39 -53 -51q-25 -12 -43 0q-23 13 -37 41q-15 27 -21 68q-12 55 -12 127v141q0 98 4 164q3 47 -6 71q-12 25 -45 39
q-37 15 -113 58q-75 -174 -270 -379q5 -36 22 -137q17 -96 56 -254q35 -127 73 -221q42 -98 89 -162q45 -65 104 -84q65 -20 117 14q52 40 88 98q46 76 65 131q33 86 41 119q3 16 19 13q13 -5 10 -23q-19 -64 -49 -135q-33 -70 -78 -137q-41 -64 -105 -109q-58 -43 -137 -43
q-71 0 -129 55q-55 52 -108 150q-48 98 -84 221q-37 122 -64 262q-29 146 -49 279q-26 153 -37 268q-15 132 -24 233q-13 150 -15 173q-134 -69 -215 -115q-193 -102 -215 -113q-50 -150 -114 -323q-57 -158 -105 -246q-31 -57 -55 -68q-24 -15 -47 -2q-20 11 -39 43
q-22 46 -31 76t-20 80q-7 31 -11 72q0 36 13 36q15 3 18 -18q5 -41 8 -59q6 -35 15 -72q11 -45 20 -68q15 -37 27 -49q15 -15 35 -8t43 51q49 90 100 230q35 94 106 307q-175 -89 -270 -127q-116 -45 -186 -33q-40 9 -58 39q-20 33 -8 94q0 12 17 12q13 -3 10 -18
q-6 -48 4 -72q12 -21 39 -28q31 -6 82 6q39 8 106 35q77 32 129 57q71 30 148 74q18 50 39 116q12 30 35.5 96t31.5 87q13 37 40.5 108t39.5 105q52 132 86 204q58 122 80 158q40 64 63 70q26 10 48 -29q21 -43 34 -100q17 -70 25 -137q13 -69 20 -154q1 -11 5.5 -62
t5.5 -75q6 -65 6 -94q179 83 231 104q116 49 207 66q98 22 170 10q75 -9 119 -62q11 -11 0 -22q-11 -5 -23 4q-43 49 -112 55q-76 6 -164 -16q-82 -19 -199 -66q-130 -58 -227 -104q1 -14 7 -69.5t9 -94.5q12 -129 23 -217q11 -116 30 -256q1 -18 11 -84zM991 1034
q-13 146 -24 248q-7 90 -23 186q-11 67 -29 103q-16 30 -38 2q-73 -155 -160 -373q-49 -127 -139 -383q105 51 206 109q158 83 207 108zM1346 907q14 -55 34 -96q19 -44 70 -92q17 47 20 102q6 62 -8 117q-16 58 -39 84q-25 28 -45 25q-21 -3 -32 -35q-12 -34 0 -105z" />
    <glyph glyph-name="h_h" unicode="hh" horiz-adv-x="1349" 
d="M1372 541q-39 -146 -88 -314q-44 -154 -76 -229q-4 -8 -13 -30.5l-15 -37.5q-19 -39 -41 -71q-17 -30 -49 -62q-23 -23 -52 -26q-27 -3 -51 24q-22 24 -47 99q-21 77 -27 126q-4 23 -11 71.5t-11 72.5q-2 18 -6 55.5t-6 56.5q-10 89 -11 99q-2 17 -5 40.5t-3 26.5
q-5 18 -7 19q-1 1 -3 -2q-30 -43 -53 -103q-20 -45 -60 -139q-18 -49 -59 -129q-18 -35 -35 -49v-2q-14 -33 -41 -74q-23 -33 -49 -59q-27 -27 -51 -27q-26 -3 -51 25q-28 31 -48 96q-19 74 -26 129q-4 23 -11.5 70t-11.5 71q-2 19 -6 57.5t-6 57.5q-9 83 -10 98
q-9 62 -10 68q-3 18 -8 16q-2 0 -3 -2q-22 -27 -51 -100q-10 -23 -29.5 -70t-29.5 -71q-21 -55 -60 -127q-30 -58 -57 -64q-10 -3 -18.5 9t-16.5 40q-13 62 -22 144q-12 182 -13 194q-2 84 -6 205v170v96q15 335 111 682q44 158 104 240q65 92 127 119q63 27 113 -23
q49 -49 55 -184q3 -93 -14 -207q-14 -115 -66 -262q-48 -136 -133 -305q-80 -154 -215 -340q0 -122 6 -224q1 -40 4.5 -103t3.5 -67q3 -46 11 -67q6 -13 16 0q12 17 23 47l32 80q14 37 43 98q8 18 45 90q20 34 48 62q24 21 43 12q18 -6 30 -51q11 -41 21 -101q8 -81 10 -112
q1 -13 8 -86q13 -114 17 -142q2 -11 20 -106q15 -81 41 -94q25 -12 49 12q29 33 47 70q-14 14 -22 49q-16 74 -23 143q-5 75 -12 193q-3 120 -6 204v172v97q15 337 110 682q41 146 105 237q68 96 127 119q63 26 112 -20q50 -50 56 -187q3 -87 -15 -207q-14 -115 -65 -262
q-54 -154 -133 -305q-78 -155 -215 -340q0 -121 6 -223q1 -30 2.5 -61l3 -62t2.5 -45q3 -54 10 -68q6 -16 17 -2q13 22 24 49q7 19 31 78q2 4 18.5 42t24.5 59q13 31 47 88q24 41 47 61q21 21 41 14q20 -10 31 -53q10 -38 20 -100q10 -90 11 -113q2 -21 5 -51t3 -33
q9 -80 18 -141q5 -39 19 -109q15 -78 41 -94q25 -12 49 15q29 26 49 73q23 47 41 88q42 125 72 226q23 72 86 309q3 15 18 12q11 -3 8 -20zM199 1671q-33 -108 -49 -211q-21 -116 -33 -235q-14 -140 -19 -240q-4 -79 -8 -229q126 173 203 325q83 164 127 293q46 133 61 248
q16 125 11 199q-9 96 -31 143q-22 42 -49 39q-28 0 -60 -37q-26 -28 -61 -86q-34 -60 -55 -108q-28 -68 -37 -101zM735 1567q-30 -110 -49 -213q-21 -114 -33 -234q-12 -121 -18 -239q-4 -75 -8 -232q120 166 202 326q80 158 127 293q50 146 64 250q14 109 8 196
q-9 106 -29 144q-19 40 -51 40q-31 -3 -59 -38q-33 -37 -62 -86q-46 -89 -55 -109q-25 -58 -37 -98z" />
    <glyph glyph-name="d_d" unicode="dd" horiz-adv-x="1540" 
d="M231 498q-38 78 -73 92q-37 15 -64 -12q-30 -27 -45 -86q-14 -56 -8 -134q12 -151 82 -194q68 -45 180 47q-5 81 -2 197q3 89 16 210q17 119 35 209q17 82 47 193q35 124 74 178q40 58 74 55q33 -6 57 -69q24 -71 27 -187q3 -77 -10 -182q-11 -91 -43 -201
q-30 -103 -80 -198q-48 -96 -123 -174q9 -173 23.5 -294t33.5 -118q12 3 26.5 32t32.5 93.5t30 109t35 141t30 126.5q-7 36 -4 86q9 60 30 106q22 49 58 78q35 30 71 33t78 -25q39 -28 68 -94q9 -15 -4 -22q-14 -4 -23 14q-38 78 -74 92t-65 -12q-28 -28 -43 -86
q-14 -56 -8 -133q12 -151 82 -197q69 -43 180 49q-5 81 -2 197q3 90 16 211q17 121 35 207q16 79 47 194q35 122 74 178q41 59 74 56q34 -6 55 -70q26 -70 29 -188q2 -68 -11 -183q-11 -88 -43 -198q-29 -102 -80 -199q-45 -91 -122 -174q9 -173 32 -254q21 -85 54 -115
q33 -26 71 -2q38 23 80 80q39 47 86 133q38 69 80 162q24 47 74 158q30 67 55 129q9 16 18 10q14 -7 7 -23q-27 -73 -68 -163q-42 -99 -84 -179q-52 -106 -92 -170q-42 -71 -94 -137q-50 -59 -93 -76q-43 -21 -83 9q-38 31 -68 118q-31 102 -45 256q-51 -42 -107 -55
q-51 -14 -100 2q-48 16 -80 53q-32 41 -47 82q-72 -310 -107 -404q-36 -98 -67 -102q-20 -2 -43 45t-44.5 144.5t-33.5 224.5q-51 -42 -106 -55q-52 -14 -101 2q-44 14 -80 53q-36 42 -53 107q-18 61 -12 123q9 57 31 106q23 51 57 78q35 30 72 33q38 3 77 -25t68 -94
q10 -17 -4 -21q-13 -7 -23 13zM1092 1020q-48 -192 -70 -363q-27 -187 -21 -366q70 80 111 166q49 97 74 188q28 100 37 189q11 107 8 172q-3 204 -43 213q-20 6 -43 -43t-53 -156zM463 1010q-48 -192 -70 -361q-26 -185 -20 -368q65 71 110 165q48 95 74 189q28 99 37 188
q10 110 8 174q-3 202 -43 211q-13 4 -27.5 -16.5t-32 -66t-36.5 -115.5z" />
    <glyph glyph-name="s_s" unicode="ss" horiz-adv-x="962" 
d="M295 768q-68 77 -135 38q-56 -32 -76 -119q-21 -90 14 -175q23 -62 90 -129q19 -16 31 -31q5 -6 14.5 -17.5t14.5 -17.5q67 67 141 127q-39 58 -53 107q-24 89 -12 162q16 73 57 123q45 51 100 71q56 20 119 8q61 -15 109 -69q9 -19 -2 -27q-13 -10 -25 8q-44 50 -90 56
q-43 8 -86 -17q-43 -24 -70 -73q-25 -52 -28 -113q-3 -62 26 -137q30 -74 103 -144q22 -22 32 -34q3 -3 33 -39q69 72 168 149q84 71 188 115q17 3 23 -8q10 -16 -14 -23q-95 -41 -185 -113q-83 -69 -159 -145q33 -43 59 -104q23 -53 29 -113q6 -102 -27 -158
q-28 -55 -82 -78q-47 -21 -100 -6q-51 12 -82 54q-30 40 -27 108q3 67 64 152q18 24 39 51q24 32 43 51q-31 38 -47 57q-10 13 -46 54q-19 19 -43 51q-61 -49 -137 -125q31 -41 53 -94q21 -50 27 -103q6 -88 -24 -141q-26 -51 -72 -70q-45 -17 -92 -6q-48 12 -74 49
q-28 39 -25 97q3 57 58 137q6 7 17.5 22.5t17.5 22.5q27 36 38 47q-27 35 -43 53q-6 8 -19 23.5t-19 23.5q-76 82 -101 164q-13 51 -12.5 100t17 89.5t40.5 73t57.5 50.5t68 21.5t72 -14.5t68.5 -56q11 -11 0 -22q-10 -8 -24 6zM645 74q-12 43 -35 82q-8 12 -51 77
q-30 -34 -41 -49q-6 -8 -18.5 -23.5t-18.5 -23.5q-52 -76 -55 -133q-3 -53 23 -90q27 -34 69 -43q41 -9 80 10q34 14 53 66q18 50 -6 127zM287 90q-8 33 -31 74q-7 11 -47 69q-36 -42 -37 -43q-19 -27 -33 -43q-49 -71 -49 -118q-3 -52 21 -82t61 -39q39 -9 72 8
q34 15 49 59t-6 115z" />
    <glyph glyph-name="o_o" unicode="oo" horiz-adv-x="1050" 
d="M690 29q39 22 76 71q31 39 59 103q27 76 37 114q15 73 17 105q-35 7 -66 22q-32 17 -65 43q-45 41 -62 60q-36 40 -49 65q-51 78 -39 125q12 45 53 54q42 9 99 -13q53 -21 88 -71q41 -50 57 -121q17 -78 14 -135q40 -3 72 22q31 22 51 66q6 13 21 10q13 -7 8 -23
q-21 -50 -62 -77q-40 -30 -90 -27q-3 -52 -18 -113q-16 -69 -41 -123q-21 -51 -64 -108q-39 -54 -81 -76q-65 -28 -107 -12q-45 19 -78 63q-36 60 -51 115q-17 63 -20 139q0 74 14 137v5q-25 -5 -37 -3q-3 -49 -18 -114q-17 -68 -41 -121q-24 -56 -64 -111q-38 -50 -82 -73
q-62 -30 -106 -13q-40 13 -78 64q-32 43 -51 115q-18 68 -21 137q0 72 15 137q14 61 47 113q14 17 30 20q19 3 31 -6q15 -6 18 -23q3 -20 -10 -36q-33 -48 -41 -99q-9 -55 -6 -112q3 -62 17 -113q16 -55 36 -94q20 -38 50 -58q27 -21 55 -6q40 24 76 72q32 40 59 102
q23 62 37 115q14 66 16 104q-26 3 -65 23q-35 18 -66 43q-45 40 -61 59q-27 27 -49 64q-51 81 -39 125q11 44 53 53q44 9 96 -12q56 -21 90 -70q44 -57 58 -123q17 -75 14 -133q27 -3 47 8q15 41 37 72q11 17 31 20q16 3 32 -4q14 -11 17 -24q4 -18 -10 -37q-33 -44 -41 -96
q-10 -63 -7 -115q3 -62 17 -113q13 -46 37 -92q21 -40 49 -59q27 -18 55 -6zM397 477q0 63 -14 123q-15 68 -53 115q-25 38 -72 57q-40 21 -74 14q-33 -6 -41 -38q-6 -33 37 -99q18 -27 45 -57q18 -23 56 -53q30 -26 59 -41q26 -18 57 -21zM881 453q0 57 -15 125
q-14 64 -53 112q-24 36 -70 60q-44 18 -75 12q-32 -6 -41 -39q-6 -32 37 -96q18 -30 45 -60q28 -31 55 -53q38 -31 59 -41q30 -17 58 -20z" />
    <glyph glyph-name="i_i" unicode="ii" horiz-adv-x="849" 
d="M-4 936q-3 31 22 37q24 3 45 -4q11 -11 15 -19q9 -15 12 -30q5 -16 2 -33q-4 -17 -20 -23q-32 -13 -45 -10q-17 3 -23 16q-8 16 -8 29v37zM256 936q0 31 25 37q22 3 45 -4q2 -2 4 -4.5t5 -7l5 -7.5q9 -15 12 -30q3 -18 0 -33q-3 -17 -18 -23q-32 -13 -45 -10
q-17 3 -23 16q-8 11 -8 29q-2 12 -2 37zM352 737q0 -28 -2 -61q0 -72 -2 -121q0 -101 2 -158q1 -28 3 -84.5t3 -85.5q3 -45 17 -157q11 -66 28 -123q16 -49 41 -62q23 -14 60 23q71 78 153 237q97 182 185 406q10 16 22 10q16 -3 6 -20q-92 -225 -186 -412
q-89 -174 -160 -242q-60 -63 -106 -63q-44 0 -74 43q-23 39 -33 76q-21 -30 -47 -56q-63 -63 -106 -63q-47 0 -74 43q-28 44 -47 123q-19 86 -25 170q-8 122 -8 188q-3 95 0 178q0 62 4 140q1 16 2 32.5t1.5 25t0.5 11.5q0 24 10 41q12 12 29 12q18 -3 29 -14q12 -15 12 -37
v-61q-2 -31 -2 -121q-1 -21 -1 -46.5t0.5 -59t0.5 -52.5q4 -112 8 -170q2 -68 17 -157q8 -62 26 -123q16 -49 41 -62q25 -15 60 23q26 26 57 74v8q-19 86 -25 170q-6 63 -10 188v178q3 87 6 140q2 39 2 69q0 25 13 41q12 12 28 12q19 -4 29 -14q12 -15 12 -37z" />
    <glyph glyph-name="r_r" unicode="rr" horiz-adv-x="1222" 
d="M666 688q-55 39 -97 90q-44 53 -59 117q-18 73 4 121t61 57q40 10 80 -20q46 -32 64 -109q15 -53 12 -129q-6 -70 -29 -117q26 -19 62 -32q45 -20 63 -29q12 -4 56 -23q17 -9 30 -34q12 -24 15 -72q4 -62 4 -137q0 -80 2 -129q0 -44 8 -158q4 -70 20 -71q9 -1 25 24
q36 56 78 153q57 128 117 273q4 15 12 37q2 4 8 17.5t8 19.5q8 19 21 12q14 -6 8 -21q-75 -193 -135 -325q-59 -136 -92 -183q-22 -38 -49 -51q-26 -10 -45 0q-22 15 -35 41q-18 32 -23 68q-9 56 -12 125v141q1 29 1.5 65.5t1 59t1.5 37.5q5 42 -6 72q-8 22 -45 38
q-41 18 -109 58q-20 -53 -60.5 -199t-82 -272t-78.5 -183q-25 -38 -51 -51q-25 -9 -43 0q-23 13 -37 41q-15 27 -21 68q-12 55 -12 125v141q0 96 4 162q3 48 -6 72q-12 24 -45 38q-27 11 -110 58q-14 -29 -52 -86q-29 -42 -63 -76q-16 -19 -25 -6q-10 10 2 24q46 53 62 76
q38 57 51 82q-53 36 -98 90q-43 52 -58 117q-19 77 4 121q22 48 60 57q40 9 82 -20q41 -28 63 -109q16 -65 10 -129q-3 -62 -26 -117q30 -21 59 -32q9 -4 33 -14t33 -15q23 -8 53 -23q20 -9 33 -34q11 -31 14 -72q2 -31 2 -137q0 -18 1 -60.5t1 -68.5q5 -112 8 -158
q4 -78 25 -71q10 3 22 24q39 70 82.5 201t82.5 269.5t55 180.5zM35 907q13 -51 35 -96q19 -46 69 -92q18 50 21 102q6 63 -8 115q-16 58 -39 84q-24 27 -45 24q-22 -3 -33 -34q-12 -35 0 -103zM578 907q10 -50 32 -96q24 -49 70 -92q15 35 22 102q3 66 -10 115
q-11 53 -39 84q-21 27 -45 24q-22 -3 -33 -34q-9 -35 3 -103z" />
    <glyph glyph-name="g_g" unicode="gg" horiz-adv-x="1189" 
d="M502 365q-28 -36 -92 -127q7 -46 18 -132q6 -76 12 -159q26 -576 -71 -813q-21 -52 -53 -95.5t-71.5 -70.5t-78.5 -32.5t-78 24t-68 94.5q-40 91 -40 212t31.5 241t85 247.5t113.5 233t124 196.5q0 1 -4 29q-4 30 -8 45q-5 19 -15 35q-6 15 -16 2q-17 -46 -27 -82
q-19 -55 -31 -82q-11 -32 -34 -76q-13 -27 -45 -59q-35 -35 -76 -45q-41 -9 -72 16q-33 20 -55 76q-23 62 -29 139q-3 68 4 121q5 50 23 125q15 63 35 115q15 41 47 94q31 48 71 88q42 42 91 66q49 21 104 18q52 -3 106 -45q18 -15 9 -27q-13 -9 -27 2q-49 40 -94 37
q-43 -3 -84 -33q-40 -29 -70 -75q-35 -54 -55 -93q-19 -38 -27 -67q-12 -35 -26 -96q-13 -62 -21 -109q-6 -40 -10 -108q-3 -83 6 -132q8 -46 31 -69q18 -21 45 -14q25 6 53 34q30 33 45 68q21 40 39 84q5 15 15.5 45t15.5 45q22 78 22 80q9 27 27 39q14 14 35 14
q19 0 37 -14q17 -17 22 -41q4 -20 4 -29q5 -23 6 -26q79 107 105 145l12 16q8 33 33 103q10 27 45 94q31 48 74 88q38 41 90 66q50 21 102 18q56 -3 107 -45q19 -16 8 -27q-10 -10 -27 2q-46 40 -92 37q-43 -3 -84 -33q-36 -24 -69 -75q-33 -44 -58 -93q-9 -19 -26 -67
q-23 -82 -25 -96q-18 -85 -21 -109q-10 -65 -10 -108q-6 -83 6 -132q8 -45 29 -69q21 -21 47 -14q27 7 51 34q24 24 47 68q24 46 37 84q23 60 31 90q6 17 14.5 45t10.5 35q5 24 24 39q17 14 37 14q17 0 35 -14q16 -13 22 -41q7 -18 7 -29q0 -10 4 -26q13 18 48.5 66.5
t57.5 78.5q55 76 105 141q9 18 22 8q11 -8 2 -26q-28 -36 -112 -154q-15 -20 -54.5 -73.5t-60.5 -81.5q12 -54 18 -132q10 -89 13 -159q0 -4 6 -172q0 -117 -4 -174q-1 -14 -11 -125q-12 -82 -22 -125q-13 -52 -41 -121q-21 -59 -60 -107q-59 -75 -112 -86q-56 -11 -103 19
q-44 31 -71 94q-29 62 -29 143q-3 119 25 240q23 113 71 227q59 132 111 217q82 133 135 207q0 1 -4 29q-4 30 -8 45q-2 8 -8 20.5t-7 14.5q-6 15 -16 2q-11 -28 -29 -82q-7 -25 -28 -82q-12 -35 -37 -76q-15 -31 -43 -59q-36 -36 -78 -45q-38 -9 -70 16q-33 20 -55 76
q-23 53 -29 139q-4 42 3 121q2 24 10 62zM831 -838q38 80 56 201q20 137 28 254q5 132 5 160v147q0 31 -5 123q-2 47 -6 92q-75 -110 -127 -198q-60 -110 -100 -207q-46 -104 -70 -215q-23 -104 -20 -226q0 -68 22 -124q26 -62 60 -87q34 -27 78 -12q36 11 79 92zM264 -934
q40 85 62 261.5t25.5 315.5t0.5 281q0 49 -4 123q-2 47 -6 92q-49 -73 -95.5 -154.5t-91.5 -176t-76.5 -192t-50.5 -192t-14.5 -186.5t33.5 -166q27 -67 66 -92t79.5 -2.5t71.5 88.5z" />
    <glyph glyph-name="e_r" unicode="er" horiz-adv-x="1183" 
d="M106 -51q-95 -51 -143 80q-41 109 -32 269q2 32 6 60q16 140 73.5 258.5t155.5 180.5q70 46 111 1q34 -37 23 -100q-7 -48 -40 -80q-57 -66 -172 -63q-27 -65 -53 -237q-39 -263 8 -328q21 -28 59 -8q57 33 160.5 175t194.5 299t137 261q-139 87 -168 225
q-27 102 18 159.5t113 29t98 -135.5q15 -66 9 -140.5t-29 -127.5q27 -23 135 -70q60 -22 74 -33q28 -24 34 -101q4 -46 5 -158q0 -185 10 -312q4 -87 29 -79q10 4 24 26q48 73 211 467q2 12 15 44.5t14 35.5q5 14 14 16.5t15.5 -5t3.5 -19.5q-179 -451 -248 -557
q-36 -56 -71.5 -60t-59.5 31.5t-33 93.5q-21 102 -10 293q0 41 1 84t3 64t0.5 46.5t-1.5 34t-7.5 23.5t-13 18.5t-22.5 15t-31.5 17.5t-44.5 22t-58 31q-85 -166 -173 -315.5t-183.5 -274t-160.5 -157.5zM498 956q17 -122 114 -206q18 43 21 109.5t-10 127.5q-12 46 -32 77
t-39 37t-36 -4.5t-21.5 -47.5t3.5 -93zM100 586q77 -3 136 45q36 39 36 99q0 49 -26 53q-36 6 -93 -93q-26 -43 -53 -104z" />
    <glyph glyph-name="c_r" unicode="cr" horiz-adv-x="1175" 
d="M152 -23q-79 -29 -136 39t-67.5 199.5t33.5 308.5q61 230 145 278q48 27 78 -14q32 -42 16 -108q-7 -29 -24 -55q-8 -13 -18 -13.5t-13 8.5t4 21q28 45 21 102q-5 39 -24 37q-37 -5 -77 -176q-29 -115 -42.5 -215t-12 -171.5t14 -121.5t35.5 -73t54 -19q53 9 152.5 154.5
t179.5 297.5t129 263q-128 84 -164 219q-13 59 -3 105.5t41 65t64.5 17t67.5 -38t51 -98.5q17 -66 11.5 -136t-29.5 -124q60 -41 133 -65q58 -23 71 -35q26 -25 32 -106q3 -43 4 -142q0 -147 10 -301q4 -76 22 -77q11 0 29 26q64 102 203 450q2 5 9.5 22.5t13 32t8.5 25.5
q6 11 15 12t14 -5.5t1 -16.5q-172 -428 -239 -539q-35 -55 -69 -59.5t-57 30t-32 91.5q-12 78 -12 284q0 40 1 82t3 62.5t0.5 44.5t-1.5 32.5t-7 23t-12 18t-21.5 14.5t-31 16.5t-43.5 20.5t-56 30q-1 -2 -30 -59t-43 -84.5t-49 -93.5t-59 -106.5t-59.5 -101t-64 -100
t-60 -80.5t-59.5 -65t-51 -33zM508 952q17 -114 108 -202q18 46 22 108.5t-9 122.5q-12 45 -32 75t-38.5 36t-35 -4.5t-20.5 -46t5 -89.5z" />
    <glyph glyph-name="C_r" unicode="Cr" horiz-adv-x="1871" 
d="M606 1208q26 53 43 114.5t14 133t-38 113.5q-62 74 -164 -95q-115 -189 -221 -563q-40 -145 -70 -290q-16 -79 -29 -161.5t-20.5 -189.5t-2 -195t32.5 -163.5t76 -108.5q92 -60 267 36.5t372 285.5q156 149 286 316t175 268q-127 81 -156 204q-13 52 -5.5 87.5t25.5 60.5
t45.5 30t54 -3.5t51.5 -41t38 -81.5q14 -63 9.5 -130.5t-25.5 -115.5q28 -24 123 -64q56 -21 69 -33q25 -24 30 -105q2 -40 3 -128q0 -141 10 -285q4 -75 23 -73q10 1 25 24q49 76 192 426q12 35 29 74q5 12 13 13.5t13 -5t2 -16.5q-169 -418 -225 -506q-25 -39 -50.5 -51.5
t-44.5 0t-33.5 40.5t-20.5 68q-17 87 -13 267q0 38 1 77.5t3 59t1 42.5t-1 31t-6.5 21.5t-11.5 17t-20 13.5t-29 16t-41 20.5t-53 28.5q-69 -129 -189.5 -282.5t-263.5 -296.5t-304 -248t-292 -125q-246 -41 -295 262q-29 173 14 459t129 552t177 408q79 124 159.5 180
t145.5 3q39 -31 53.5 -84.5t6.5 -113t-24 -112.5t-38 -98q-4 -8 -11.5 -8.5t-12.5 6t-1 14.5zM1237 928q22 -112 104 -191q18 43 21.5 102t-10.5 115q-11 42 -29.5 70.5t-36 35t-33 -3t-20 -43.5t3.5 -85z" />
    <glyph glyph-name="E_r" unicode="Er" horiz-adv-x="1951" 
d="M422 -168q-86 9 -162 45t-134 94.5t-90 145.5t-28 190q4 109 53 220t125.5 201t168 162t186.5 114q-141 3 -254 73q-105 66 -130 160t37.5 187t200.5 153q78 34 175.5 46.5t198.5 -8.5t157 -83q8 -8 6 -16.5t-10 -9t-15 6.5q-54 59 -146 77.5t-183 -0.5t-158 -62
q-80 -51 -119.5 -124.5t-33.5 -145.5t52 -128q51 -61 135 -85.5t171 -10.5q21 4 100 23q21 5 23 -8q2 -11 -15 -15q-12 -3 -47 -11t-53.5 -13t-48 -16t-54.5 -25q-170 -94 -280.5 -291t-108.5 -391q0 -145 70.5 -251.5t214.5 -144.5q97 -26 207.5 10.5t213 115t207 194
t190.5 237.5t163 254q-122 81 -156 207q-9 41 -6.5 76t17 56.5t34 35t43.5 11.5t46.5 -14.5t43 -42.5t31.5 -73q15 -60 10.5 -127.5t-26.5 -117.5q19 -14 58 -33.5t67 -28.5q55 -21 67 -33q25 -24 30 -106q2 -40 3 -127q0 -141 10 -287q4 -72 21 -71q10 0 26 24
q55 85 193 426q17 39 29 74q8 20 22 11q12 -6 6 -19q-164 -411 -225 -508q-25 -38 -50 -50t-44 0.5t-33.5 40t-21.5 66.5q-13 80 -13 268q0 38 1 77.5t3 59t1 42.5t-1 31.5t-6.5 21.5t-11.5 16.5t-20.5 14t-29 16.5t-40.5 20.5t-53 28.5q-45 -88 -106.5 -182.5t-140 -196.5
t-170 -190t-187.5 -157t-202 -104.5t-204 -25.5zM1319 924q19 -113 102 -191q18 43 22 102.5t-9 114.5q-11 42 -30 70.5t-37 34.5t-33 -3.5t-19.5 -43t4.5 -84.5z" />
    <glyph glyph-name="a_r" unicode="ar" horiz-adv-x="1349" 
d="M778 715q-129 84 -166 217q-13 54 -4.5 91t27.5 63t47.5 31.5t56.5 -3.5t53.5 -43t38.5 -86q18 -66 13 -135.5t-29 -122.5q32 -25 131 -65q57 -22 71 -35q27 -24 32 -107q3 -43 4 -139q0 -178 10 -299q6 -77 24 -76q11 0 27 25q58 92 201 446q3 7 9.5 24t12 31.5
t9.5 22.5q5 13 13.5 14.5t13.5 -5.5t1 -17q-178 -440 -237 -531q-26 -41 -52 -54t-46.5 0t-35.5 42.5t-22 69.5q-14 78 -14 282q0 47 1.5 98t4 69.5t-2 45t-6 31t-18 20t-29 19.5t-48 23t-66.5 36q-23 -40 -106.5 -236t-163 -357.5t-117.5 -176.5q-39 -14 -60.5 16
t-25.5 85.5t-2 112t6.5 108.5t3.5 61q-62 -143 -113 -205q-84 -109 -162 -84q-67 22 -96 130q-32 115 -2 270q16 75 43.5 143t69 124.5t90.5 89.5t112 33t130 -40q17 -11 8.5 -22.5t-27.5 -1.5q-44 26 -84.5 26.5t-73 -22.5t-60.5 -60.5t-49.5 -88t-37 -104t-25.5 -110.5
q-34 -195 5 -289q29 -69 83 -37q28 16 58 60q31 45 57 99t41 92t29.5 70t29 44.5t33.5 5.5q16 -6 20.5 -56.5t0.5 -119t-9 -136t-5 -114.5t10 -47q21 1 98 162t164 362t102 230zM684 946q18 -112 107 -198q19 43 23 106t-9 121q-11 44 -31 73.5t-38.5 35.5t-35 -4t-21 -45.5
t4.5 -88.5z" />
    <glyph glyph-name="u_r" unicode="ur" horiz-adv-x="1366" 
d="M291 436q40 120 80 256q3 19 5 50t5 42q6 17 39.5 11t32.5 -33q-1 -20 -6 -97.5t-6.5 -106t-5.5 -100t-5 -108.5t-2.5 -100.5t-1 -107t2 -95.5t5.5 -98q5 -88 45 -18q12 19 37 73q99 211 145.5 323t147.5 373q-132 85 -160 209q-12 53 -4 88.5t26.5 61t46.5 31t55 -3.5
t51.5 -42t37.5 -83q15 -62 9.5 -131t-27.5 -119q36 -27 129 -64q55 -21 68 -33q24 -24 29 -106q2 -39 3 -129q0 -142 10 -291q6 -73 22 -75q10 -1 28 26q55 84 194 432q2 6 15 35t16 39q7 18 19.5 13t4.5 -21q-156 -400 -225 -514q-26 -39 -51.5 -51.5t-45.5 0t-34.5 41.5
t-21.5 69q-11 81 -11 270q0 38 1 78.5t3 60t0.5 43t-1.5 31.5t-6.5 22t-12 17.5t-21 14t-29.5 16.5t-42 21t-54 30q-27 -64 -82 -203.5t-104.5 -257.5t-103.5 -229q-66 -134 -101 -161q-47 -36 -68 67q-4 20 -7 45q-12 117 -7 257.5t10.5 258.5t0.5 119q-38 -111 -52 -156
q-34 -101 -67 -171.5t-62.5 -106.5t-56 -45t-48.5 13.5t-39 68t-28.5 118.5t-15.5 166q-9 144 8 395q1 21 21.5 27t40 -4t18.5 -29q-11 -212 -4 -383q6 -142 19 -218.5t36.5 -94.5t61 50t90.5 224zM719 924q14 -110 102 -195q18 44 22 105t-9 118q-11 42 -29.5 70.5
t-37 34.5t-34 -4t-19.5 -44t5 -85z" />
    <glyph glyph-name="i_r" unicode="ir" horiz-adv-x="1298" 
d="M-10 932q-1 15 6.5 22.5t15.5 8.5t25 0.5t24 -0.5q5 1 15 -21.5t10 -48t-20 -29.5q-15 -3 -26.5 -3.5t-19.5 -0.5t-13.5 5.5t-8.5 8t-4.5 12t-2 13t-1 17t-0.5 16.5zM713 702q-61 40 -105.5 96.5t-62.5 123.5q-10 44 -7 81t18.5 60t36.5 38t47 12.5t50 -15.5t45 -45.5
t33 -77.5q18 -67 12 -137t-30 -125q52 -34 133 -66q59 -22 72 -34q28 -24 34 -104q3 -45 4 -147q0 -168 11 -303q6 -77 22 -77q10 0 27 26q56 89 207 455q4 10 14.5 39.5t13.5 38.5q9 18 23 12.5t8 -23.5q-181 -448 -242 -538q-26 -41 -52 -54.5t-46.5 -0.5t-35.5 42.5
t-23 71.5q-15 84 -15 287q1 40 2 82t3 63t0.5 45.5t-1.5 33t-6.5 22.5t-12.5 17.5t-22 15t-30.5 17.5t-43 21t-55.5 31q-96 -202 -253 -471t-234 -346q-186 -186 -240 167q-33 216 -11 670q1 23 1 29q-1 35 20 47t42 -2t20 -43q-9 -139 -3 -376q13 -507 108 -496q18 2 40 26
q72 77 189 272.5t188 330t107 208.5zM616 938q21 -116 111 -203q18 44 22.5 108.5t-8.5 121.5q-12 45 -32.5 75.5t-39.5 37t-35.5 -3.5t-21 -46t3.5 -90z" />
    <glyph glyph-name=".notdef" horiz-adv-x="614" 
 />
    <glyph glyph-name=".null" horiz-adv-x="0" 
 />
    <glyph glyph-name="nonmarkingreturn" horiz-adv-x="682" 
 />
    <glyph glyph-name="NULL" horiz-adv-x="0" 
 />
    <glyph glyph-name="NULL" horiz-adv-x="0" 
 />
    <glyph glyph-name="CR" unicode="&#xd;" horiz-adv-x="1024" 
 />
    <glyph glyph-name="space" unicode=" " horiz-adv-x="614" 
 />
    <glyph glyph-name="exclam" unicode="!" horiz-adv-x="342" 
d="M174 1669v-243.5v-253t-1 -224t-3.5 -249t-6.5 -230.5t-11 -260q-1 -19 -17.5 -25t-32 2t-14.5 23q12 184 13.5 389.5t-2 333.5t-14.5 381t-15 358q-1 40 25 50t52.5 -7.5t26.5 -44.5zM76 72q0 13 20.5 19.5t42 0.5t23.5 -22q6 -30 4 -62.5t-25 -36.5q-29 -4 -46 1
t-21.5 18.5t-4.5 25t3.5 31t3.5 25.5z" />
    <glyph glyph-name="uni0022" unicode="&#x22;" horiz-adv-x="397" 
d="M98 1636q27 -90 18.5 -185.5t-44.5 -197.5q-7 -19 -21.5 -21t-24.5 8t-8 22q43 218 -8 340q-13 36 4 59t44 17t40 -42zM258 1632q21 -90 6.5 -188t-59.5 -191q-8 -21 -22 -23t-22.5 9t-4.5 23q56 220 14 340q-11 38 7.5 60t45 14t35.5 -44z" />
    <glyph glyph-name="numbersign" unicode="#" horiz-adv-x="1626" 
d="M729 1526q4 10 20 13.5t35 -0.5t36.5 -12t25.5 -23.5t0 -33.5q-46 -113 -162 -368q151 -13 412 2q84 242 135 414q4 14 12 20.5t17 4.5t16.5 -7.5t11 -15.5t0.5 -19q-75 -232 -131 -395q25 1 73.5 3t72.5 3q35 2 44 -19t-5 -43t-35 -22h-177q-78 -222 -153 -418l182 8
q36 2 45 -19t-5.5 -42.5t-35.5 -21.5h-215q-33 -87 -98 -261.5t-98 -261.5q-14 -37 -50 -34q-30 2 -39 28q-4 14 3 31q140 332 208 498q-205 -3 -434 10q-122 -294 -194 -543q-6 -17 -22 -19.5t-28.5 9t-7.5 28.5q70 226 179 531l-160 8q-27 2 -35.5 21.5t3.5 38t34 16.5
q30 -2 182 -17q42 118 158 422l-203 13q-24 2 -32 21t3 37t33 17q37 -3 111.5 -9t111.5 -9q65 169 156 416zM655 1034q-138 -306 -188 -420q213 -17 438 -8q77 190 164 422q-275 0 -414 6z" />
    <glyph glyph-name="dollar" unicode="$" horiz-adv-x="833" 
d="M604 1452q-94 109 -194 84v-709q179 -186 221 -362q10 -51 11.5 -109.5t-17 -117.5t-46.5 -106t-78 -75.5t-112 -25.5q-1 -14 -1.5 -40.5t-1.5 -48.5t-3 -42q0 -17 -8 -25q-7 -10 -17 -10q-18 -5 -33 6t-14 29q1 25 4 72.5t4 70.5q-105 29 -169.5 101.5t-69.5 164.5
t55 193q8 14 21.5 13t18.5 -12t-1 -24q-78 -127 -31 -238.5t181 -152.5q18 353 20 578q-28 32 -75 80.5t-77 80.5t-67.5 78t-57 87t-34 91t-10.5 106.5t24 119.5q32 99 105 173t174 101q-1 27 -4.5 82.5t-4.5 83.5q-2 33 31 49q32 15 52 -6q10 -11 10 -31v-166
q132 0 229 -114q11 -14 5.5 -26.5t-17.5 -13.5t-23 11zM406 592q-3 -248 -15 -516q61 -3 101.5 24.5t56 72t13.5 96.5t-21 102q-33 92 -135 221zM344 893q0 240 -14 602q-52 -39 -84 -102t-40.5 -141t26 -173.5t112.5 -185.5z" />
    <glyph glyph-name="percent" unicode="%" horiz-adv-x="1267" 
d="M1020 1497q-121 -195 -267 -463t-282.5 -507t-280.5 -445q-17 -25 -38 -23.5t-26 21t9 43.5q106 160 211.5 338.5t158.5 273.5t178.5 329.5t160.5 299.5q-88 -65 -203 -78q-51 -6 -96 0q-13 -114 -49 -205q-26 -72 -68.5 -128t-89.5 -81q-26 -13 -53 -16q-38 -3 -74 16
q-51 28 -90 107q-34 69 -43 160q-5 46 -2 100q6 111 63 188q16 22 47 17.5t44.5 -26.5t-1.5 -50q-43 -59 -49 -143t15.5 -154t55.5 -119.5t64 -48.5l4 4q82 42 142 189q35 86 45 194q-45 9 -82 27q-83 35 -143 113q-68 97 -54 153q9 33 39 45q25 13 64 6q49 -6 100.5 -41
t77.5 -88q26 -50 35 -123q4 -36 4 -59q42 -6 90 0q102 12 188 74q57 43 88 96l21 37l2 4l2 6h2q21 29 48 28t36 -23t-4 -48zM840 37q49 25 73.5 114.5t23 186t-20 176t-46.5 86.5q-30 -11 -48 -50.5t-17 -96.5q0 -15 -10 -21.5t-20 -1.5t-11 19q-1 51 13 93t37.5 66t54 31.5
t60.5 -3.5t58.5 -46t46.5 -90q17 -53 13.5 -131t-25.5 -152.5t-60.5 -134.5t-90.5 -78t-115 16q-47 27 -78.5 104.5t-39 170t1.5 179.5t44.5 143t89.5 51q28 -1 27 -18q-1 -16 -25 -20q-4 -1 -10 -1q-36 1 -60 -50.5t-29.5 -129t1 -158.5t32.5 -148.5t64 -89.5
q35 -19 66 -16zM506 1329q0 35 -2 49q-6 59 -31 111q-23 43 -64.5 71.5t-84.5 36.5q-25 3 -43 -6q-14 -4 -17 -18q-11 -42 49 -121q48 -65 125 -98q52 -21 68 -25z" />
    <glyph glyph-name="ampersand" unicode="&#x26;" horiz-adv-x="788" 
d="M580 422q-70 -174 -199 -303q67 -224 107 -215q4 1 8 4q7 7 14 24q1 2 2 5.5t2 5.5q16 49 18 104q1 10 7.5 14t12.5 -0.5t5 -15.5q-3 -64 -20 -111v0v-2v0v0v0v0v0v0v-2v0h-2v0v0v0v-2v0v0v0v0v0v0v-2v0v0v0v0v0h-3v-2v0v0v0v0v0v0v-2v0v-2h-2v-2v0q-27 -61 -71 -51
q-21 3 -45 27q-51 51 -97 172q-68 -50 -125 -64.5t-87 9t-33 79.5t37 146q39 85 102 182q-70 303 -70 516q0 283 127 399q63 61 127 33q53 -19 82 -88l-2 2q14 -30 19 -55q28 -120 -17.5 -306.5t-183.5 -416.5q46 -238 80 -357q114 114 184 287q6 14 17.5 9.5t5.5 -19.5z
M389 1343q-57 13 -94 -34.5t-50 -138t-10 -207.5t23 -250q15 -109 29 -174q126 218 168 393t16 287q-9 42 -31 76.5t-51 47.5zM283 164q-2 8 -7 20l-4 11v2l-2 2v4l-2 2v4q-2 6 -20.5 71.5t-28.5 104.5q-60 -93 -88 -160q-46 -111 -33 -162t71.5 -44t137.5 69q-17 48 -22 70
l-2 2v2v2z" />
    <glyph glyph-name="uni0027" unicode="'" horiz-adv-x="278" 
d="M131 1653q54 -143 -25 -365q-6 -19 -18.5 -21.5t-22 8t-8.5 23.5q40 204 -8 322q-14 33 2 55.5t42 17t38 -39.5z" />
    <glyph glyph-name="parenleft" unicode="(" horiz-adv-x="716" 
d="M494 1608q-179 -311 -249 -609t-17.5 -577.5t235.5 -501.5q21 -29 18.5 -48.5t-24.5 -17t-41 30.5q-141 200 -207.5 412.5t-59.5 433t71 443t186 466.5q28 56 64 50q26 -4 32 -34q6 -23 -8 -48z" />
    <glyph glyph-name="parenright" unicode=")" horiz-adv-x="626" 
d="M33 -74q179 310 249 607.5t17 577t-236 501.5q-21 30 -18.5 49.5t25 16.5t41.5 -31q141 -200 207.5 -412.5t59.5 -432.5t-71 -442.5t-186 -465.5q-28 -56 -64 -50q-26 3 -32 33q-6 24 8 49z" />
    <glyph glyph-name="asterisk" unicode="*" horiz-adv-x="753" 
d="M377 1589q0 -36 -2 -87q-2 -54 4 -56t44 40q23 26 38 42q12 14 31 10q2 0 14 -8q4 -4 4 -10q10 -17 -4 -35q-17 -17 -44 -42q-41 -39 -39 -44.5t55 -1.5q47 3 79 4q23 0 33 -17q0 -2 1 -6.5t1 -5.5q0 -4 -1 -8l-1 -4q-12 -23 -33 -23q-33 0 -81 2q-56 2 -57 -5t48 -49
l1 -1l1 -1l2 -1q22 -19 35 -31q15 -12 4 -30q-1 -2 -2 -5t-2 -4q-6 -6 -8 -6q-16 -12 -33 2q-21 19 -49 47q-32 31 -38 29q-5 -2 -5 -52q0 -52 -2 -91q0 -16 -19 -27h-10q-8 0 -10 4q-19 4 -19 25q2 26 5 67q7 75 1 81t-48 -35q-30 -29 -50 -48q-15 -15 -31 -2q-5 0 -8 6
q0 3 -6 9q-7 17 6 30q10 9 29 25q57 49 59 58q1 5 -7 6q-8 2 -45 2q-55 -1 -93 1q-17 0 -25 19v10v10q11 19 27 19q22 -1 47.5 -3t38.5 -3.5t26 -1t18 0t7.5 3.5t0 6.5t-10 11.5t-15.5 16.5t-24.5 23.5t-30.5 30q-16 16 -8 35q2 2 4.5 5.5t3.5 4.5q8 8 11 8q23 4 34 -10
q7 -7 27.5 -29.5t34.5 -36.5q26 -28 28 -26q1 9 0 49q-1 6 -6 104q0 20 17 33q4 2 14 2q8 0 14 -2q19 -11 19 -33z" />
    <glyph glyph-name="plus" unicode="+" horiz-adv-x="1179" 
d="M659 1040q0 -151 1.5 -279.5t1.5 -142.5q40 0 313 13q40 2 50.5 -20t-6.5 -45t-44 -23h-316q-1 -30 -6.5 -150.5t-9.5 -242.5q-3 -21 -25.5 -27t-44 4.5t-20.5 30.5q17 302 12 385q-27 2 -70 4.5t-126 7.5t-179 12q-18 0 -23 22t4.5 43.5t25.5 20.5q255 -19 364 -32
q-23 204 -31 413q-1 26 12 42t32 18t38.5 -2.5t33 -19t13.5 -32.5z" />
    <glyph glyph-name="comma" unicode="," horiz-adv-x="231" 
d="M104 133q17 -72 5 -147t-46 -152q-10 -23 -26.5 -15t-13.5 25q46 165 12 265q-11 38 16 54q23 14 41 -7q9 -9 12 -23z" />
    <glyph glyph-name="hyphen" unicode="-" horiz-adv-x="1171" 
d="M901 633q-70 0 -134 -0.5t-101.5 -0.5h-66t-57 0.5t-43.5 0.5t-58 2t-67 3.5t-103.5 5.5t-137.5 7q-18 1 -22 20t4.5 37.5t21.5 18.5q89 -6 193 -13.5t115 -9t76.5 -2t75 1t112.5 6.5t188 9q38 0 49 -21.5t-4 -43t-41 -21.5z" />
    <glyph glyph-name="period" unicode="." horiz-adv-x="268" 
d="M20 162q2 24 54 26t57 -26q9 -39 9 -103t-29 -69q-40 -8 -64 1.5t-30.5 34t-6.5 46t5 52.5t5 38z" />
    <glyph glyph-name="slash" unicode="/" horiz-adv-x="1339" 
d="M1104 1544q-81 -140 -216.5 -382.5t-221.5 -394t-217.5 -357t-262.5 -381.5q-18 -26 -40 -24t-26.5 22.5t9.5 44.5q265 374 457.5 707.5t425.5 797.5q25 51 64 41q27 -7 34 -35q5 -20 -6 -39z" />
    <glyph glyph-name="zero" unicode="0" horiz-adv-x="1417" 
d="M387 1563q-156 44 -252 -149q-93 -189 -99 -525q-6 -337 78 -614q83 -277 222 -359q192 -114 343 77q131 166 195 504q59 318 29 603q-31 282 -138 370q-76 63 -179 11q-65 -33 -112 -121t-64.5 -182t-12.5 -172q1 -12 -6 -17.5t-15 -1t-9 18.5q-9 142 25.5 256
t101.5 184q137 144 281 79q121 -55 208 -237q103 -217 106 -494q2 -347 -161 -617q-38 -63 -84 -118q-49 -60 -107.5 -106.5t-126.5 -77.5t-143.5 -29t-144.5 43q-149 88 -238 381q-86 285 -79 625q7 341 105 536q102 202 271 163q6 -1 12 -3q20 -5 21 -18q0 -12 -15 -12
q-6 0 -12 2z" />
    <glyph glyph-name="one" unicode="1" horiz-adv-x="624" 
d="M14 1206q4 9 15 38q27 73 48 122.5t60.5 126.5t79.5 109.5t76 13.5q44 -25 66.5 -98.5t26 -163t-8.5 -217.5t-26.5 -228t-37.5 -229q-18 -102 -26 -152t-20.5 -131t-17 -133.5t-9 -123t-3.5 -137.5t5 -142q2 -33 -22.5 -45.5t-50.5 0t-28 39.5q-17 213 -1 402t55 411
q4 25 18 103t19 109t16 99t15.5 109.5t10.5 101t8.5 114t2.5 109.5q-1 258 -105 84q-46 -77 -134 -296q-2 -4 -3 -7q-4 -11 -12.5 -12t-14.5 7t-2 17z" />
    <glyph glyph-name="two" unicode="2" horiz-adv-x="1013" 
d="M14 1139q-9 107 12.5 193t64 139.5t101.5 85t124.5 36t134.5 -15.5t129.5 -62.5t111 -111.5t78.5 -156q28 -86 31.5 -178t-17.5 -182t-53 -176t-84.5 -175t-102.5 -164t-116.5 -156.5t-117 -139t-113.5 -125.5q-8 -10 -23 -26q-40 -46 -39 -53q1 -6 38 -6q49 -1 85 -5
q199 -21 399 -146q8 -5 6.5 -13.5t-8 -12t-14.5 1.5q-188 118 -385 139q-10 1 -36 1.5t-46.5 2t-41 5.5t-28.5 15t0 29q27 63 111.5 189t179.5 273t144 257q168 379 97 652q-44 170 -167 251q-107 71 -218 42q-113 -30 -168 -148q-50 -105 -38 -258q1 -8 -6.5 -11.5
t-15.5 -1t-9 10.5z" />
    <glyph glyph-name="three" unicode="3" horiz-adv-x="1292" 
d="M373 1501q52 52 124.5 83t147.5 34q78 3 133 -17t80.5 -55.5t35 -74t5.5 -82.5q-20 -207 -281 -306q-14 -5 -39 -14q-41 -14 -41 -19t35 -10q113 -17 201 -57q94 -45 155 -118.5t83.5 -160.5t17 -181t-38.5 -189q-70 -205 -225 -340t-350 -146.5t-398 158.5q-9 9 -7.5 19
t10 12t18.5 -6q164 -142 340 -152q128 4 266.5 144.5t208.5 332.5q28 79 40 159.5t5.5 162t-45 152.5t-106.5 116q-100 64 -254 72q-20 0 -28 19t17 28q41 15 62.5 23.5t54 24t50 29t40 35.5t35.5 47.5t24.5 61t18.5 78.5q14 88 -17.5 151.5t-103.5 69.5q-64 6 -130.5 -22
t-119.5 -84q-9 -8 -19 -5.5t-11.5 10.5t6.5 17z" />
    <glyph glyph-name="four" unicode="4" horiz-adv-x="1040" 
d="M786 1141q-82 -639 -88 -1348q0 -25 -20.5 -32.5t-41 5.5t-20.5 37q0 131 9 662q-239 109 -531 184q-14 4 -36.5 9.5t-28.5 7t-15.5 7.5t-7.5 10t6.5 15.5t14 23.5t28.5 34q378 452 617 841q7 12 16.5 12t13 -8.5t-1.5 -19.5q-253 -411 -618 -848q-28 -33 -27 -38
q1 -4 33 -11q13 -3 25 -6q291 -76 514 -178q7 411 37 651q2 20 16 34.5t32.5 19t36.5 1.5t29 -20.5t8 -44.5z" />
    <glyph glyph-name="five" unicode="5" horiz-adv-x="1613" 
d="M137 -43q223 -168 438 -141q106 15 199.5 73t162 143.5t118.5 193.5t74.5 221.5t24 230t-26.5 217.5t-84 184t-142 129q-67 37 -148.5 40t-161.5 -23.5t-160 -70t-151.5 -100t-129 -111.5t-99.5 -107q-19 -25 -32 -15t4 35q90 142 231 582q10 28 19 53.5t15.5 45
t8.5 26.5q5 13 12.5 20.5t20.5 9t23 1t28.5 -3t28.5 -3.5q210 -7 540 4q10 0 14.5 -8t0.5 -16t-15 -8q-212 -6 -420 -3h-20q-69 0 -83 -8q-13 -9 -28 -51q0 -1 -1 -5q-13 -36 -23 -62q-96 -252 -170 -383q158 133 346 197.5t367 15.5q124 -35 211.5 -118t129 -191.5
t48 -237.5t-22.5 -257t-92 -249t-150.5 -214t-209 -150.5t-257.5 -61.5q-120 -4 -238.5 36t-219.5 115q-6 5 -8 10.5t0 10t5.5 7.5t9.5 2.5t13 -5.5z" />
    <glyph glyph-name="six" unicode="6" horiz-adv-x="1419" 
d="M854 1593q-174 -9 -295 -80q-76 -44 -140 -121t-109 -172t-78.5 -207.5t-48.5 -227.5t-19 -232t10 -221q17 -152 50.5 -263t76 -172.5t93.5 -92t105 -25.5t109.5 32t107.5 75t98.5 109t82 129.5t59 140t29.5 136.5q6 64 -2.5 121.5t-35.5 103.5t-74 60t-117 -10
q-53 -21 -102.5 -57t-97.5 -91.5t-87.5 -125t-69.5 -162.5t-45 -199q-2 -12 -10.5 -15.5t-16 2.5t-5.5 19q19 138 63 253.5t103 195t125 133t137 80.5q174 63 281.5 -26.5t82.5 -262.5q-14 -92 -63 -193.5t-119.5 -192t-161 -160.5t-182 -104.5t-188.5 -17t-175 95.5
q-139 136 -187.5 373.5t-4.5 499.5q27 178 92 334.5t165.5 281.5t245 202t316.5 87q16 0 22.5 -8t0.5 -16.5t-21 -8.5z" />
    <glyph glyph-name="seven" unicode="7" horiz-adv-x="1034" 
d="M29 1454q42 -15 111.5 0t144.5 45.5l150 61t146 48.5t115 7q32 -8 49 -38.5t17.5 -78t-6 -98t-22.5 -114t-30 -110t-31 -100.5t-22 -73q-78 -294 -119 -439q90 24 158 51q24 8 32.5 -5t-17.5 -23q-77 -33 -183 -60q-29 -110 -89.5 -328.5t-90.5 -328.5q-10 -41 -49 -47
q-34 -6 -49 19q-9 13 -4 32q31 127 87.5 343.5t73.5 283.5q-64 -16 -155 -29q-29 -3 -30 13q-1 14 22 19q4 1 8 1q67 6 166 29q80 308 116 448q2 9 16.5 58t27 95t28.5 110t25 117t14 101t-3 77t-28 32q-38 6 -118.5 -24.5t-159 -66.5t-169 -58t-147.5 1q-19 7 -13 21
q7 16 28 8z" />
    <glyph glyph-name="eight" unicode="8" horiz-adv-x="1124" 
d="M643 465q-76 37 -151.5 37t-142 -36t-123 -89.5t-96 -122t-59 -133.5t-13 -125t41.5 -96q26 -21 84.5 -13t130 39.5t149.5 82.5t143.5 117t111.5 142.5t54 159t-30 166.5q-26 56 -97.5 123.5t-158 142t-129.5 127.5q-49 62 -71.5 137t-19 147t29 139t67.5 115.5
t103.5 74.5t130.5 18q66 -6 102.5 -56.5t41 -121t-5.5 -141t-31 -128.5q-64 -174 -181 -297q63 -55 95 -83.5t80 -79.5t79 -97q116 -180 72 -350q-28 -121 -133.5 -229.5t-245 -167t-262.5 -45.5q-139 10 -172 129q-31 111 37 262q68 150 191 241q162 120 331 66
q31 -10 61 -26q20 -10 12 -23.5t-26 -5.5zM637 1567q-47 28 -118 -41q-80 -77 -120 -206q-57 -182 17 -323q31 -57 84 -102q113 122 176 287q20 56 28.5 129.5t-7 148.5t-60.5 107z" />
    <glyph glyph-name="nine" unicode="9" horiz-adv-x="1222" 
d="M899 1522q-130 76 -227 26q-114 -58 -221 -245q-105 -182 -137 -359q-31 -179 40 -226q29 -19 74 -13q50 6 100 37t90.5 78.5t72.5 98.5t57 105q66 145 99 169q32 23 43 -42q2 -8 3 -18q12 -115 13.5 -277.5t-9 -344.5t-46 -346t-91.5 -245q-42 -62 -94 -86t-107.5 -11.5
t-111.5 41.5t-116 78.5t-109.5 95t-104 95t-88.5 74.5q-18 14 -8 27q9 12 24 2q38 -26 102.5 -85t120.5 -112t127 -104t129 -70q72 -17 126 44.5t82.5 174.5t45.5 248.5t19.5 278t0 249.5t-9.5 176q-49 -127 -140.5 -228.5t-209.5 -139.5q-143 -48 -204 63q-57 103 -24 287
q36 199 153 359q125 170 292 214q122 35 260 -41q9 -7 8.5 -16.5t-8 -13t-16.5 1.5z" />
    <glyph glyph-name="colon" unicode=":" horiz-adv-x="481" 
d="M139 776q0 19 30.5 28t62.5 1.5t36 -29.5q15 -115 10 -153q-6 -49 -34 -54q-40 -8 -66 0.5t-36.5 26t-13.5 44.5t0 50t7 50t4 36zM139 209q0 19 30.5 28t62.5 1.5t36 -29.5q15 -115 10 -153q-6 -49 -34 -54q-40 -8 -66 0.5t-36.5 26t-13.5 44.5t0 50t7 50t4 36z" />
    <glyph glyph-name="semicolon" unicode=";" horiz-adv-x="530" 
d="M186 795q0 21 34 31t69.5 1.5t38.5 -34.5q21 -144 7 -192q-10 -33 -34 -38q-31 -4 -53 -3.5t-36.5 11t-23.5 22.5t-12.5 31.5t-3.5 36.5t2 38.5t4.5 37.5t5 32.5t2.5 25.5zM348 270q-11 43 -47 54.5t-61.5 -13.5t-10.5 -69q48 -152 -36 -400q-5 -14 6.5 -28t30 -13
t30.5 23q62 112 87.5 230t0.5 216z" />
    <glyph glyph-name="uni003C" unicode="&#x3c;" horiz-adv-x="1013" 
d="M223 573q-53 47 -77 85t-20 66t20 47t47 38q10 6 76 47.5t109.5 68t116 69.5t149.5 84.5t157 80.5q49 24 56 -1q5 -20 -17 -41q-8 -7 -17 -11q-147 -65 -344 -203.5t-264 -200.5q86 -86 149 -145.5t123.5 -107t92 -71t107 -75t116.5 -80.5q19 -14 21 -28t-10.5 -17.5
t-29.5 2.5q-154 77 -275 161.5t-286 231.5z" />
    <glyph glyph-name="equal" unicode="=" horiz-adv-x="1171" 
d="M874 711q-107 0 -197.5 -1t-108.5 -1.5t-80.5 1.5t-111.5 5t-202 12q-10 1 -15.5 9.5t-5.5 20.5t2.5 23.5t9.5 19.5t15 7q80 -6 174 -13t104 -9t69.5 -3t68.5 0.5t103.5 5.5t172.5 7q34 2 44 -19t-4 -43t-38 -22zM874 522h-114.5t-82.5 -0.5t-63 -0.5t-45.5 -0.5
t-41.5 0.5t-38.5 1.5t-49.5 2.5t-62 3.5t-87.5 5.5t-115.5 7q-10 1 -15.5 9.5t-5.5 20.5t2.5 23.5t9.5 19.5t15 7q329 -26 347.5 -26.5t344.5 13.5q34 1 44 -20.5t-4 -43.5t-38 -22z" />
    <glyph glyph-name="uni003E" unicode="&#x3e;" horiz-adv-x="1007" 
d="M786 821q30 -19 45.5 -38t20.5 -46.5t-19 -65.5t-77 -85q-165 -147 -286 -231.5t-275 -161.5q-17 -6 -29.5 -2.5t-10.5 17.5t21 28q43 31 116 81t106 74t92.5 71.5t123.5 107t150 145.5q-66 61 -264 199.5t-346 203.5q-20 9 -29 30.5t3 30t50 -7.5q80 -39 157 -80.5
t149.5 -84.5t116 -69.5t109.5 -68t76 -47.5z" />
    <glyph glyph-name="uni003F" unicode="?" horiz-adv-x="954" 
d="M350 106q0 11 19 16.5t39 0.5t22 -19q6 -29 0.5 -55.5t-27.5 -30.5q-23 -4 -37 0t-17.5 15.5t-3.5 22t2.5 27t2.5 23.5zM162 1114q-37 82 -41.5 161.5t20 142t71.5 110t108 71.5t135.5 20.5t148.5 -38.5q62 -30 108.5 -77.5t71 -116t20 -148t-51.5 -178.5t-136 -201
q-44 -50 -70.5 -82t-57.5 -74.5t-47 -76.5t-31.5 -78.5t-19 -89.5t-1 -100t13.5 -119q2 -16 -7 -26t-20 -4.5t-14 26.5q-13 106 -12.5 184.5t11 138.5t42 120.5t66 109t98.5 124.5q80 96 114 187.5t22 161t-47 120.5t-89 80q-42 22 -91.5 31t-96.5 3.5t-90.5 -22.5
t-74.5 -50t-47.5 -75.5t-9.5 -102t40 -126.5q8 -12 -5 -22q-17 -12 -30 16z" />
    <glyph glyph-name="at" unicode="@" horiz-adv-x="1011" 
d="M416 612q27 2 69 -16q7 -3 12 -1t4.5 7.5t-7.5 9.5q-49 26 -99 17q-48 -8 -81.5 -37t-47.5 -68.5t-16.5 -85t7 -86.5t27.5 -73.5t42 -45.5q32 -17 62 0.5t51 56t32.5 68.5t17.5 52l5 18q6 -51 21 -89.5t38.5 -61.5t59.5 -12t79 59q82 92 105.5 210t-17 217.5
t-133.5 139.5q-79 32 -182 12q-118 -17 -206.5 -92t-131.5 -186q-48 -120 -25.5 -266t107.5 -242q48 -55 112.5 -84t133.5 -25q85 5 153.5 57.5t98.5 145.5q2 7 -2 11t-9.5 2t-7.5 -9q-39 -119 -145 -164q-162 -60 -267 54q-88 94 -102 264q-15 178 59 321q84 161 245 191
q61 11 130 2q100 -27 146 -122.5t25 -214.5t-101 -210q-89 -100 -124 104q-3 14 -6 37q-2 14 -3 19q-25 126 -70 -64q-3 -14 -4 -16q-17 -72 -59.5 -134t-75.5 -22q-27 32 -30 113.5t26.5 156.5t83.5 82z" />
    <glyph glyph-name="A" unicode="A" horiz-adv-x="1521" 
d="M1876 -346q-18 -56 -38 -106.5t-54 -111t-72 -103.5t-91 -72t-112 -29q-74 -1 -139.5 64.5t-112 169.5t-86 249.5t-65.5 287t-47 302t-32.5 273.5t-21.5 221q-4 49 -6 69q-33 -17 -428 -227q-52 -153 -79.5 -229.5t-68 -178.5t-71.5 -159q-75 -136 -138 -31
q-44 74 -61 206q-2 13 -3 25q-1 34 14 36q12 0 16 -17q34 -264 96 -257q24 2 52 52q67 124 207 535q-172 -87 -283.5 -128.5t-171.5 -29.5q-85 15 -68 131q1 9 8.5 11t14.5 -3t6 -14q-14 -85 43 -98q102 -17 463 170q314 916 414 942q22 6 41.5 -18.5t33 -76.5t24 -107
t18.5 -131.5t12 -126t8.5 -115t5.5 -75.5q129 63 232.5 104t203 65t173.5 12t116 -62q10 -13 -1 -21.5t-22 3.5q-38 45 -108.5 54.5t-167 -16t-197 -66t-227.5 -103.5q42 -451 75 -681q128 -868 357 -939q48 -15 93 6t77.5 60.5t62 98t46 103.5t30.5 92q3 10 11.5 12
t14.5 -4t3 -18zM995 899q-35 384 -56 477q-17 74 -38 75q-9 0 -20 -13q-147 -320 -297 -756q34 18 182.5 97t228.5 120z" />
    <glyph glyph-name="B" unicode="B" horiz-adv-x="1384" 
d="M176 1397q52 165 92 207q57 60 107 -29q31 -56 65 -184q179 166 320 213q91 28 145.5 4t76 -80t16 -125t-34.5 -131q-48 -104 -123 -170q101 18 181.5 -14.5t130.5 -100t83 -157t44 -188t9 -190.5t-18 -167q-19 -86 -52.5 -169.5t-82 -163.5t-119 -137.5t-150.5 -76.5
q-185 -45 -385 137q-16 -96 -39 -147q-39 -91 -105.5 -97t-127.5 86q-94 149 -149.5 384t-53.5 427q1 138 22 244.5t67 198.5t104.5 166t152.5 168q-50 241 -88 229q-17 -7 -61 -145q-4 -13 -12 -14.5t-13 5.5t-2 17zM449 1360q73 -309 82 -723t-44 -727q186 -182 361 -148
q71 14 130.5 90t96 179.5t57.5 196.5t27 165q12 142 -6 274t-62.5 234t-126 147.5t-186.5 8.5q-11 -3 -29 -11.5t-26 -11.5q-23 -9 -28 4.5t16 24.5q55 30 99 80.5t67 111.5q18 48 19 102.5t-14.5 100.5t-52 74t-86.5 22q-97 -10 -294 -194zM350 -217q23 84 35 197
q-112 135 -203 309q-9 14 5 20q13 5 20 -8q92 -169 182 -283q71 686 -31 1254q-88 -90 -143.5 -162t-98 -160t-61.5 -189t-20 -233q-1 -179 38.5 -361t110.5 -337q11 -24 17.5 -38.5t18.5 -37.5t21.5 -34.5t21.5 -24t22.5 -11.5t22 8.5t22 30.5t20.5 60z" />
    <glyph glyph-name="C" unicode="C" horiz-adv-x="1210" 
d="M602 1204q26 54 43 115.5t14 132.5t-38 113q-61 74 -163 -95q-115 -189 -220 -562q-40 -144 -70 -287q-17 -81 -29.5 -162.5t-20.5 -190t-3 -195.5t32.5 -162t77.5 -106q157 -98 545 230q136 119 262 259t180 236q8 14 31 14q18 0 11 -13q-4 -6 -15 -15
q-57 -101 -190 -246.5t-275 -267.5q-38 -31 -77 -61t-91.5 -64.5t-102 -61t-105 -47.5t-104.5 -28.5t-96.5 2t-84.5 38t-65.5 85t-41.5 137.5q-28 173 15 458t128 550t175 407q79 124 159 179t146 1q39 -30 53.5 -83t6.5 -112t-23.5 -111.5t-36.5 -98.5q-4 -8 -12 -8
t-13.5 6t-1.5 14z" />
    <glyph glyph-name="D" unicode="D" horiz-adv-x="1511" 
d="M190 1413q66 237 136 227q34 -4 67 -69q36 -65 58 -174q246 185 473 209q288 31 425 -198q117 -198 96 -533q-19 -311 -145 -596q-123 -279 -294 -400q-160 -113 -324 -55q-105 39 -197 125q-8 -50 -25.5 -98t-44 -85.5t-57 -52.5t-68.5 7t-75 87q-88 156 -139 370
t-49 403q3 246 80 415t253 326q-42 177 -82 192q-23 8 -41 -44q-1 -2 -1 -3q-15 -44 -21 -63q-3 -8 -10.5 -8.5t-12.5 5.5t-2 13zM457 1366q11 -48 14 -59q61 -311 66 -662t-45 -663q111 -107 196 -125q177 -45 339 150q148 180 233 491q88 320 62 601q-28 300 -181 416
q-102 77 -252 58q-102 -14 -219 -73.5t-213 -133.5zM248 -182q61 -75 107 48q24 65 40 179q-92 106 -198 301q-5 8 -0.5 14.5t11 6t11.5 -6.5q72 -137 180 -280q34 252 25.5 615.5t-57.5 594.5q-166 -154 -237.5 -314.5t-74.5 -395.5q-3 -147 58 -409.5t135 -352.5z" />
    <glyph glyph-name="E" unicode="E" horiz-adv-x="1251" 
d="M416 -160q-86 9 -161.5 44.5t-133.5 94t-89.5 145t-27.5 189.5q4 109 52.5 219t124.5 199.5t167.5 160t186.5 112.5q-141 3 -254 73q-78 48 -111.5 115.5t-20.5 136t75 134.5t165 110q77 34 174 46.5t197 -8t155 -81.5q8 -9 6.5 -17.5t-9.5 -9t-15 5.5
q-53 59 -144.5 77.5t-182.5 0t-158 -62.5q-79 -51 -118 -123.5t-33 -143.5t52 -127q49 -61 132.5 -85.5t170.5 -10.5q2 0 101 23q12 3 18.5 -1.5t3 -11.5t-15.5 -10q-7 -2 -30.5 -7t-34 -7.5t-31.5 -8t-35.5 -11t-33 -13t-34.5 -16.5q-170 -95 -279.5 -290.5t-109.5 -389.5
q0 -143 70 -248t213 -143q59 -18 119 -13.5t115.5 21t110.5 50t104 73t96 89.5t87 99.5t77 104.5t65.5 103.5t52.5 96.5q9 18 22 11q12 -7 3 -21q-49 -97 -110.5 -190t-146.5 -187.5t-176 -162.5t-201.5 -106.5t-219.5 -27.5z" />
    <glyph glyph-name="F" unicode="F" horiz-adv-x="686" 
d="M156 571q47 19 127 45q-9 297 -37 547q-192 -233 -205 -458q-7 -114 3 -287t47.5 -359t96.5 -254q31 -35 55 122q33 214 41 601q1 46 1 60q-80 -24 -117 -39q-14 -6 -21.5 5t9.5 17zM137 1581q74 72 138 -137q21 -69 40 -166q57 57 142.5 124.5t190 133.5t210 97.5
t176.5 6.5q97 -40 75.5 -165.5t-134.5 -237.5q-6 -6 -13 -3.5t-8.5 9.5t4.5 14q64 64 100 138.5t29.5 136t-61.5 82.5q-66 25 -170.5 -8.5t-208.5 -101t-189 -135.5t-136 -122q47 -283 57 -602q143 42 196 49q22 4 22 -6.5t-17 -16.5q-3 -1 -5 -1q-44 -7 -196 -52
q15 -472 -42 -714q-39 -169 -106 -160q-23 4 -49 29q-54 53 -92 183t-54 277.5t-21 272t-1 201.5q13 239 228 491q-36 281 -77 340q-11 15 -20 10q-15 -9 -29 -35t-21.5 -49.5t-16.5 -56.5t-12 -41q-3 -11 -10 -12.5t-12 5t-3 15.5q55 168 96 207z" />
    <glyph glyph-name="G" unicode="G" horiz-adv-x="1161" 
d="M502 1174q12 22 25.5 65.5t22 99.5t8 106.5t-22.5 87t-66 40.5q-61 4 -124 -95t-118 -270q-20 -61 -40 -169.5t-37.5 -246.5t-20 -282t9 -269t53 -216t109.5 -115q96 -38 227 80q-6 149 -6.5 278t16.5 242t52 176q27 48 60.5 69.5t64.5 15t58 -28.5t44 -61.5t19 -84.5
q6 -143 -54.5 -285.5t-163.5 -265.5q1 -25 3.5 -74t3.5 -73q35 42 153.5 189t220.5 269.5t160 182.5q8 9 16.5 7t10 -10.5t-5.5 -17.5q-48 -49 -130.5 -145.5t-147.5 -176.5t-158 -196t-117 -145q1 -19 5.5 -100.5t6.5 -128t2.5 -128.5t-4 -137t-15 -116t-28.5 -101
q-45 -104 -121 -109q-66 -5 -117 65q-66 90 -51 230q6 59 27 119q48 137 207 342q-2 28 -5.5 82.5t-5.5 79.5q-122 -106 -241 -80q-151 33 -223.5 232t-56 456.5t74 506.5t166.5 408.5t223 135.5q64 -14 93 -74t23.5 -133.5t-22.5 -140t-39 -105.5q-6 -7 -12.5 -6t-11 8
t-0.5 13zM639 584q-30 -198 -23 -496q199 255 191 504q-3 88 -40 115t-77 -10.5t-51 -112.5zM535 -838q14 56 17 163t0.5 178t-11.5 243q-142 -189 -183 -305q-53 -152 -6 -275q29 -77 79 -96q52 -19 85 41q12 21 19 51z" />
    <glyph glyph-name="H" unicode="H" horiz-adv-x="1288" 
d="M1464 -289q-11 -42 -26.5 -89t-47 -113t-68 -112t-90 -70.5t-110.5 -4.5q-41 14 -75.5 48t-58.5 81.5t-42 96t-30.5 106t-19 95.5t-11.5 79q-40 297 -35 825q-266 -226 -444 -258q-1 -21 -1.5 -40t-2.5 -65t-6 -86t-10 -95t-15 -100.5t-20.5 -95t-27.5 -86t-35 -65.5
t-44 -41t-54 -6q-39 9 -68 41t-42 74q-3 7 2.5 12.5t14 4.5t12.5 -9q10 -34 30.5 -60.5t46.5 -15.5q50 22 78 196t33 435q-57 10 -98.5 44t-60.5 80t-24 100.5t11 105.5q4 17 20 11q14 -5 9 -17q-14 -64 -8 -124.5t46 -109t105 -61.5q1 72 -4 220t-17.5 342t-41.5 358
t-68 212q-12 15 -25.5 17t-26.5 -6.5t-25.5 -21.5t-23.5 -31t-18.5 -32.5t-13.5 -27.5q-4 -9 -12 -9.5t-13.5 6t-1.5 15.5q13 31 32 60t46.5 57.5t57.5 36t65 -5.5q51 -24 89.5 -109t58.5 -198t34 -247t16 -256t4.5 -224.5t-1.5 -153.5q175 34 442 268q4 535 33 828
q2 27 42 45q44 20 68 0q16 -14 11 -45q-33 -214 -46 -729q45 42 135.5 131t156 151t150 135.5t164.5 127t152 83.5q62 26 115 33t96.5 -5.5t67.5 -57.5t22 -119q0 -8 -7 -10.5t-14 1t-7 11.5q5 231 -263 121q-89 -37 -201 -121t-191 -157.5t-203 -195.5t-173 -167
q-4 -260 4.5 -494t31.5 -450t72.5 -342t119.5 -121q42 3 81.5 35.5t65.5 75t49.5 97.5t34.5 92t19 70q2 11 9.5 13.5t14 -3t4.5 -14.5z" />
    <glyph glyph-name="I" unicode="I" horiz-adv-x="524" 
d="M236 -315q48 68 75.5 341.5t32.5 626.5q3 338 -16.5 597.5t-57.5 297.5q-25 26 -75 -63t-64 -148q-2 -11 -10 -14t-14.5 2.5t-4.5 15.5q7 30 30.5 81t56.5 104t73.5 81t73.5 7q72 -48 97 -325t18 -658q-1 -20 -2 -92.5t-2.5 -129t-5 -146t-9.5 -159.5t-14.5 -152.5
t-22.5 -142.5t-31 -111.5t-42 -77t-54 -23.5q-33 2 -74.5 39t-80.5 92.5t-66.5 100.5t-48.5 85q-5 10 -1 17t12.5 6.5t13.5 -9.5q20 -35 43.5 -73t59.5 -91t66 -76.5t44 -2.5z" />
    <glyph glyph-name="J" unicode="J" horiz-adv-x="731" 
d="M16 1331q21 58 103 135.5t164 124.5q234 137 282 -444q2 -25 5 -67q2 -27 3 -38q235 123 541 146q10 1 16.5 -3.5t6.5 -9.5t-5.5 -10t-15.5 -6q-304 -23 -541 -147q12 -152 17.5 -261t3.5 -270.5t-18 -292.5q-8 -74 -26.5 -158t-51.5 -187.5t-90 -187t-127 -118.5
q-81 -43 -150 8q-62 45 -96.5 151.5t-39.5 228.5t3 231t25 184q48 202 161 367t285 278q0 4 -1 22q-29 566 -143 568q-13 0 -28 -8q-75 -41 -154 -115t-100 -127q-5 -12 -13 -13.5t-13.5 4.5t-2.5 15zM127 -410q52 -46 123.5 21t137 227t93.5 361q8 59 11.5 127.5t4.5 118
t-2 133t-5 118.5t-9 133t-8 121q-329 -223 -420 -616q-14 -63 -22 -164.5t-6.5 -217t27.5 -217.5t75 -145z" />
    <glyph glyph-name="K" unicode="K" horiz-adv-x="1263" 
d="M315 508q-52 -34 -100 -49q-67 -19 -99 7.5t-14.5 72t74.5 73.5q75 35 139 11q-3 304 -34 549t-88 337q-70 115 -166 -61q-4 -7 -12 -9t-13 3t0 16q18 41 43.5 76.5t59 62.5t73 22t76.5 -48q145 -176 156 -948q94 94 183 214t197.5 284t159.5 235q5 8 12.5 7t10.5 -7.5
t-2 -14.5q-52 -72 -164.5 -243t-205 -294t-191.5 -218v-17q57 -45 145.5 -143.5t161.5 -185.5t159 -163.5t148 -92.5q73 -20 131 41.5t102 224.5q5 14 17 10.5t8 -18.5q-47 -175 -113.5 -240.5t-150.5 -42.5q-53 14 -117.5 64t-129 120t-125 141t-125.5 143t-111 110
q0 -344 -26 -528q-25 -175 -73 -257q-30 -52 -76 -69.5t-90.5 10t-66.5 96.5q-2 7 2.5 12.5t12 4t13.5 -12.5q72 -135 125 -10q38 89 59.5 284t24.5 441zM315 541v55q-61 25 -129 -8q-51 -24 -62 -63q-10 -35 21 -46q24 -8 64 4q43 13 106 58z" />
    <glyph glyph-name="L" unicode="L" horiz-adv-x="1398" 
d="M102 1370q3 15 12.5 41.5t25.5 62t35.5 66t43.5 54.5t49.5 27.5t53.5 -15.5q58 -46 89.5 -196t36 -332.5t-3.5 -379t-21.5 -335t-23.5 -199.5q18 -10 94 -52t109 -59t94.5 -47t112.5 -48.5t102 -31.5q66 -17 122.5 -19.5t112.5 14t101.5 54.5t84.5 106t65 163q5 16 18 12
q10 -4 6 -16q-28 -101 -69 -173t-89 -112.5t-107.5 -58.5t-120 -15.5t-130.5 21.5q-63 16 -139.5 48t-114 50t-141 74t-115.5 63q-54 -295 -164 -319q-55 -12 -113 41t-92 127.5t-34 151.5t49 108q86 56 272 -37q36 231 42 528.5t-21 530t-80 272.5q-22 16 -45 -3t-40.5 -58
t-27.5 -67.5t-14 -45.5q-2 -14 -16 -8q-10 5 -9 12zM180 -137q80 17 129 319q-34 17 -59 27t-62.5 22t-69.5 11t-57 -15q-41 -24 -42.5 -87.5t24 -126t65 -109.5t72.5 -41z" />
    <glyph glyph-name="M" unicode="M" horiz-adv-x="1554" 
d="M0 1403q26 88 68 155q65 103 112 27q29 -45 53 -181.5t34 -240.5t16 -198q117 214 239 368q33 40 65.5 71t69.5 52t66 20t51 -35.5t29 -103.5q5 -54 -3.5 -164t-23.5 -242.5t-18 -174.5q-19 -216 -10 -312q13 -140 108 24q52 91 90 187q88 194 137 281q37 65 65.5 100.5
t45.5 40t29 -7.5t15.5 -41.5t5.5 -62t-1 -68.5q-7 -147 -57 -547q-5 -39 -13 -143t-15.5 -236t-4.5 -243t21 -136q11 -16 28 4t39 74.5t36.5 93.5t36.5 106l21 67q136 416 232 600q6 13 14 14t10 -7.5t-2 -17.5q-99 -188 -229 -598q-1 -1 -17.5 -53.5t-30 -89.5t-33 -88
t-39 -85.5t-36.5 -47.5q-143 -108 -161 154q-13 181 42 653q5 41 18 149.5t18.5 155.5t11 112t6.5 103q1 58 -13 56q-15 -3 -59 -97l-8 -16q-20 -37 -53 -109.5t-37 -81.5q-59 -132 -112 -218t-96 -118t-71 0.5t-36 138t8 293.5l5.5 60.5t6 65t5.5 62t5 66t4 60.5t4 63
t2.5 55.5t1.5 55.5t-0.5 46.5t-1.5 43.5q-11 169 -153 0q-128 -155 -254 -402q42 -685 -8 -960q-29 -159 -88 -173q-48 -11 -91 77q-28 58 -45 145q-65 323 140 778q-25 581 -97 734q-10 20 -35.5 -31t-37.5 -88q-3 -9 -10 -10.5t-12 4t-3 12.5zM178 -43q36 245 19 766
q-83 -193 -116 -369t1 -350q24 -122 51 -146q26 -23 43 83z" />
    <glyph glyph-name="N" unicode="N" horiz-adv-x="1368" 
d="M-2 1403q125 375 204 109q47 -159 77 -591v-3q215 322 401 489q259 232 358 47q32 -60 38 -168.5t-10 -244t-36.5 -259t-46.5 -265t-35 -210.5q-56 -448 13 -657q2 -10 3.5 -15t5 -16.5t7.5 -16.5t9 -9.5t12 -1.5t14 12q42 57 127 334q42 130 69.5 210t73.5 196.5
t90 199.5q5 7 11.5 7.5t11 -6t0.5 -14.5q-106 -202 -232 -602q-2 -7 -23.5 -72t-37 -109.5t-39 -97.5t-41.5 -73q-94 -109 -150 -4q-43 86 -50 284.5t26 456.5q9 67 32.5 201t42 248.5t33.5 243.5t11 238.5t-29 180.5q-58 166 -334 -136q-156 -171 -320 -412q-2 -4 -3 -5
q25 -346 18 -624q-8 -347 -85 -438q-44 -53 -93 3q-59 67 -79 226q-8 61 -7 127q3 282 153 586q-25 540 -92 737q-16 48 -49 -29q-10 -24 -24 -65q-3 -7 -10.5 -8t-12.5 4t-2 12zM197 262q3 184 -7 436q-129 -282 -129 -532q1 -187 39 -271q25 -56 50 -15q43 72 47 382z" />
    <glyph glyph-name="O" unicode="O" horiz-adv-x="1163" 
d="M416 1217q-79 -5 -147.5 -67.5t-113 -153t-71.5 -180t-37 -165.5q-31 -236 13 -457q49 -245 166 -312q87 -50 200 12q110 60 223 214.5t200 357.5t128 406q26 132 28 248t-21.5 213.5t-82.5 162.5t-151 85q-125 29 -249.5 -13t-234.5 -136q-8 -6 -15.5 -3.5t-7.5 10
t9 15.5q122 102 270 145.5t289 2.5q88 -25 151.5 -82t97 -128.5t49 -162t14 -175.5t-14.5 -175q-14 -94 -52.5 -216t-102 -257.5t-139.5 -254.5t-175 -209.5t-199 -119.5q-97 -25 -170 -4t-123.5 84.5t-82.5 149.5t-46 190.5t-13.5 208.5t13.5 204q9 64 28.5 136.5
t54.5 152.5t79 144.5t106.5 108t131.5 46.5q21 0 21 -12.5t-23 -13.5z" />
    <glyph glyph-name="P" unicode="P" horiz-adv-x="843" 
d="M88 1432q84 260 156 210q5 -3 10 -8q48 -50 86 -258q78 89 154.5 152t147.5 96.5t132.5 29t107.5 -45.5t73.5 -132t29.5 -225q1 -52 -7.5 -135.5t-30.5 -190t-54.5 -195t-88 -143.5t-122.5 -42q-98 17 -170 231q-2 7 3.5 12t13 3.5t10.5 -9.5q9 -27 20 -54.5t30.5 -65.5
t44 -61t48.5 -21q48 5 93 103t73 241.5t33 287.5q4 124 -10 209.5t-41.5 129t-68 57t-88.5 -1.5t-103 -52.5t-110.5 -90t-113.5 -120.5q29 -175 45 -435t8 -542t-47 -446q-15 -65 -40 -94.5t-52 -26t-57 28t-54.5 58.5t-44.5 73q-74 144 -96.5 323t4 353.5t89.5 339.5
t155 295q-24 205 -68 284q-23 38 -67 -107q0 -2 -6 -22q-4 -11 -11.5 -11.5t-12.5 5.5t-3 13zM254 -66q33 173 36.5 577.5t-30.5 719.5q-85 -127 -143 -286.5t-81.5 -327.5t-0.5 -339t94 -309q50 -96 86 -96q27 1 39 61z" />
    <glyph glyph-name="Q" unicode="Q" horiz-adv-x="1454" 
d="M416 1229q-153 -11 -258 -217q-99 -197 -118 -482q-18 -278 52 -463q68 -180 195 -187q34 -2 71 9q113 34 237.5 178t225.5 347q-67 182 -237 -24q-68 -84 -154 -236q-5 -8 -12.5 -8t-10.5 6t1 14q15 27 28 48t42.5 68t55.5 80t61 74t66.5 60t63.5 28t61 -11t50 -67
q44 93 82 209t62 253t24 258.5t-42.5 226.5t-127.5 157q-68 41 -146.5 49.5t-153 -12t-142.5 -56.5t-128 -87q-12 -9 -20 0.5t4 19.5q91 77 191.5 119.5t212.5 46t220 -48.5q94 -44 153.5 -123.5t80.5 -175t18 -208t-26.5 -223t-60.5 -221t-77.5 -200.5t-82.5 -162
q2 -17 2.5 -53.5t1.5 -74.5t3.5 -86t9 -90.5t16.5 -84t28.5 -71t42.5 -47.5t60.5 -16.5t80.5 24.5q56 27 157.5 151.5t172.5 247.5q9 15 20 10q13 -5 1 -26q-69 -122 -174 -250t-164 -158q-56 -28 -100 -27.5t-72.5 22t-49 63t-31.5 86.5t-17 102.5t-7.5 100t-2.5 89.5
q0 35 -1 49q-40 -65 -88.5 -127.5t-112.5 -127.5t-138.5 -107t-145.5 -47q-183 -13 -282 182q-91 181 -83 468q8 280 104 500q96 218 241 271q33 12 67 14q13 1 18 -5t0 -13t-18 -8z" />
    <glyph glyph-name="R" unicode="R" horiz-adv-x="1355" 
d="M82 1413q3 10 15 44.5t19.5 54t20.5 46.5t27 44q69 86 130 -67q32 -80 46 -173q44 49 78.5 83.5t86.5 77.5t105 66.5t103 24.5q76 2 126.5 -43.5t71 -115.5t24.5 -156.5t-6 -163.5t-28 -140q-43 -147 -127 -275t-201 -222q43 -42 124.5 -139.5t149 -178.5t147.5 -153.5
t136 -87.5q70 -18 127 44t101 226q2 7 9 8t13 -3t4 -11q-49 -178 -114 -245t-146 -44q-61 16 -143.5 89t-150 155.5t-150 181t-127.5 141.5q-73 -56 -170 -102q-11 -250 -19 -326q-29 -273 -107 -272q-6 0 -13 2q-34 9 -69 49.5t-55.5 79t-37.5 80.5q-95 235 -84 518
q9 225 68 398.5t192 348.5q-16 150 -37.5 229.5t-48.5 65.5q-9 -4 -20.5 -25t-19 -42t-16 -48.5t-10.5 -31.5q-2 -7 -9 -7.5t-12.5 4t-2.5 11.5zM346 1327q43 -290 43 -715q65 -5 156 -86q94 98 155.5 229.5t87.5 272.5q37 187 5.5 339t-117.5 181q-39 13 -84.5 -3.5
t-92 -57.5t-77.5 -73.5t-67 -75.5q-6 -8 -9 -11zM231 -168q49 52 56 520q-71 -4 -103 42t-4 107t109 93q-3 372 -29 625q-120 -166 -173 -330.5t-62 -380.5q-11 -284 84 -512q12 -36 57 -111t65 -53zM289 377v188q-61 -26 -84.5 -73.5t1 -83t83.5 -31.5zM434 434
q50 35 92 74q-78 71 -139 80q0 -108 -4 -178q27 12 51 24z" />
    <glyph glyph-name="S" unicode="S" horiz-adv-x="929" 
d="M600 1450q-17 43 -84.5 80.5t-146.5 54t-156 -2t-109 -77.5q-23 -42 -24.5 -91.5t13.5 -98t45.5 -104.5t66 -104.5t82 -105t85.5 -100t85 -95.5t73 -85q38 -48 75 -101t78.5 -122.5t70.5 -142t47.5 -145.5t14 -146.5t-33.5 -133.5q-32 -66 -84.5 -98t-110 -31t-120 23
t-115.5 55.5t-96 73.5q-120 112 -154 222t11 214t166 211q7 7 14 4t8.5 -10.5t-4.5 -13.5q-114 -102 -156.5 -197.5t-11.5 -197.5t143 -208q30 -30 81 -62.5t113.5 -60.5t123 -24.5t94.5 47.5q69 88 9.5 293t-216.5 420q-33 45 -84.5 104.5t-97 109t-96 111t-88 115.5
t-65 118t-35 123t9 124.5t61.5 128.5q36 51 99 75.5t131 20t133.5 -24.5t114.5 -57t65 -80q6 -12 -9 -15q-13 -2 -16 7z" />
    <glyph glyph-name="T" unicode="T" horiz-adv-x="1366" 
d="M1397 528q-60 -164 -152.5 -363t-175.5 -321q-189 -282 -261 160q-62 384 -26 1304v11q-30 -22 -104.5 -76t-114.5 -82q-45 -32 -84.5 -58t-89.5 -55t-91.5 -45.5t-86 -29t-79 -6.5t-64 25t-48 61.5t-24.5 105.5q-1 10 6 14.5t14.5 0.5t8.5 -15q5 -55 22 -92t44 -52.5
t58.5 -19.5t72 8t78.5 28t83.5 43.5t81.5 52t78 55.5q295 213 424 297q370 238 614 282q149 27 223.5 -31t46.5 -206q-2 -13 -9.5 -16.5t-13.5 2.5t-3 18q25 133 -39.5 182t-198.5 23q-107 -19 -243 -80t-235 -120.5t-222 -141.5q-30 -625 -3 -1080q29 -500 123 -484
q19 3 42 30q52 62 162.5 309t158.5 373q3 9 11 9.5t13.5 -6t2.5 -14.5z" />
    <glyph glyph-name="U" unicode="U" horiz-adv-x="1806" 
d="M31 1153q-4 -6 -12 -5t-11.5 7t0.5 14q6 9 26 35t57 72.5t82 94t96.5 97.5t104 85.5t101 55.5t92 9t72.5 -55q38 -57 46.5 -187.5t-5.5 -316.5q-1 -24 -14.5 -176t-23 -281.5t-15.5 -315t6 -278.5q6 -63 16.5 -104.5t23 -62t31.5 -22t35 5.5t40.5 31.5t42 45t44.5 55.5
q157 203 314 539t194 526q10 53 52 73q37 17 56 -9q10 -14 9 -37q-1 -40 -9 -182t-12.5 -259t-6 -250t9.5 -217.5t34 -99.5q18 -12 61 44t93.5 151t83.5 161t57 117q6 12 19 6t8 -18q-39 -82 -59.5 -123.5t-67 -128.5t-92 -149.5t-90.5 -102.5q-87 -66 -127.5 -5.5
t-51.5 232.5q-3 58 -3 129t1 122t6.5 141t8 123.5t10.5 133.5q-70 -217 -206.5 -490.5t-268.5 -442.5q-36 -47 -72 -83t-76 -65t-75.5 -32t-67 16t-54.5 79.5t-34 157.5q-13 120 4 415t40 530l24 235v2q0 6 3 46t4 56.5t2.5 53.5t0 59t-5.5 48.5t-11 45.5q-53 143 -257 -32
q-127 -109 -256 -282q-15 -21 -27 -38z" />
    <glyph glyph-name="V" unicode="V" horiz-adv-x="1253" 
d="M2 791q6 28 22 76t45.5 111.5t63.5 114.5t81 80t93 13q53 -17 94.5 -135.5t66 -287t43.5 -339t38.5 -322t38.5 -204.5q6 -16 11.5 -24.5t11.5 -9.5t11.5 1.5t12 11t12 16t13 19t12.5 18.5q55 74 118.5 165.5t150.5 232.5t159.5 277.5t132 289.5t83.5 280t-1.5 238.5
t-108.5 175.5q-8 7 -6.5 15t8.5 10.5t15 -2.5q88 -67 116 -181.5t5.5 -245t-82.5 -287t-133 -295.5t-162 -283.5t-154 -238t-123 -171.5q-17 -23 -34 -43t-38.5 -41t-41.5 -30t-38.5 -9t-33.5 20.5t-23 59.5q-25 120 -66.5 438t-80.5 554t-72 265q-34 29 -76 -12.5
t-75.5 -115t-55.5 -133t-26 -77.5q-2 -9 -9.5 -11.5t-13.5 2.5t-4 14z" />
    <glyph glyph-name="W" unicode="W" horiz-adv-x="1865" 
d="M0 915q16 34 44.5 80.5t69.5 104t86 110t96.5 94.5t99.5 63.5t95.5 10.5t83.5 -59q126 -165 -2 -848q-4 -24 -22.5 -113.5t-27 -151.5t-7.5 -116q0 -169 82 -29q73 126 189 392.5t186 388.5q67 115 117 127q36 9 49 -49q5 -22 6 -54q2 -49 -8.5 -171t-21 -240.5
t-13 -260.5t15.5 -231q44 -235 295 127q173 248 399 705q27 53 46 93.5t48 108t47.5 121t36.5 123t22.5 125t-1.5 115.5t-28 106t-64 86t-104 64q-20 7 -15 20.5t23 5.5q66 -25 111.5 -66t70 -88.5t32.5 -109t4.5 -119.5t-20 -129t-35.5 -128t-47.5 -125.5t-49.5 -113.5
t-48 -100q-273 -551 -480 -812q-268 -336 -335 -43l-4 16q-24 122 -21 327q3 116 27 430q11 154 -3 159q-8 2 -23 -23q-5 -8 -11 -19q-59 -111 -172.5 -375t-189.5 -393q-32 -54 -69.5 -90t-71 -44.5t-54 36t-16.5 143.5q5 121 47 398q19 123 29 195.5t21 182.5t10 178.5
t-13.5 135t-40.5 100.5q-23 30 -54 34t-64 -13.5t-68.5 -48.5t-69.5 -72.5t-64.5 -83t-56 -83t-42.5 -70.5t-25 -46q-6 -13 -19 -7.5t-8 19.5z" />
    <glyph glyph-name="X" unicode="X" horiz-adv-x="1134" 
d="M10 1288q89 163 128 176q23 6 36 -26q32 -75 83 -269t96 -388t50 -210q74 115 103.5 161t123 188.5t154.5 226.5t143 194t146 178.5t111 98.5q15 9 22 -3q8 -13 -12 -26q-32 -22 -72.5 -61.5t-89 -99t-92 -115.5t-101.5 -139t-97.5 -139.5t-99.5 -147.5t-87 -133
t-80.5 -125.5t-62.5 -96.5q9 -37 28 -117q72 -309 120 -432q99 -248 225 -171q37 23 77 73q49 62 102 152t84.5 152.5t79.5 164.5q9 19 22 12q13 -6 5 -20q-51 -109 -80 -168.5t-82 -150t-104 -154.5q-188 -244 -318 -107q-89 93 -176 406q-22 79 -61 238
q-303 -479 -570 -938q-5 -8 -13 -8t-11.5 6.5t0.5 15.5q256 442 584 963q0 1 -59.5 245.5t-105 418.5t-63.5 218q-13 33 -47 -32q-11 -21 -12 -23q-6 -11 -14.5 -11.5t-12.5 6.5t0 17z" />
    <glyph glyph-name="Y" unicode="Y" horiz-adv-x="1490" 
d="M8 1206q2 4 30.5 65.5t48.5 99t53 94t68.5 94.5t70.5 57q78 41 121.5 -10.5t50.5 -178.5t2.5 -237.5t-19.5 -251.5q-9 -79 -53 -418l-2 -14l-2 -12l-2 -13q-2 -12 -8.5 -57t-10 -75.5t-7 -77.5t0 -79.5t12.5 -64.5t29.5 -49.5t50.5 -18.5q47 -2 115 36.5t136 98t134 128
t114.5 130t70.5 101.5q3 5 8.5 15t7.5 14q20 391 76 667q7 37 35 46t52 -11.5t19 -52.5q-72 -483 -88 -1049q40 28 114 98t156 152t107 105q13 9 22.5 -1.5t-3.5 -23.5q-17 -15 -178 -171t-218 -196q0 -10 0.5 -102t-0.5 -177.5t-7.5 -210.5t-18.5 -225t-37 -194.5
t-60 -144.5q-96 -140 -193 -17q-78 100 -125 314q-29 136 -26 229q2 70 30 136.5t81 127.5t108.5 110t133.5 107q8 284 16 416q-62 -96 -152 -195t-207.5 -184.5t-218.5 -107.5q-66 -11 -110.5 -6.5t-67 39.5t-31 79.5t-4 112.5t14.5 138.5t24 158.5q11 63 16.5 98.5
t13.5 91.5t13 103q38 312 37 522.5t-57 214.5q-85 4 -258 -385q-8 -14 -21.5 -8.5t-7.5 20.5zM938 -901q11 27 19 68.5t14.5 104.5t10.5 118t7.5 149.5t5.5 156.5t5.5 180.5t5.5 182.5q-71 -54 -122 -100.5t-98 -102.5t-72.5 -116.5t-27.5 -124.5q-6 -120 51 -309
q56 -189 117 -242q51 -45 84 35z" />
    <glyph glyph-name="Z" unicode="Z" horiz-adv-x="1617" 
d="M16 1380q-25 129 50 189t191.5 53.5t233.5 -11.5q58 -5 84 -7q389 -16 619 -31q218 -15 126 -131q-35 -44 -154 -136q-27 -21 -40 -32q-273 -223 -544 -565t-445 -670q-1 -4 1.5 -6.5t7.5 -2t12 4.5q311 187 561 71q49 -23 115.5 -71t125.5 -98t129 -100t130.5 -85
t124 -45t115.5 12.5t99.5 95t81.5 195.5q2 10 10.5 12.5t15 -3.5t3.5 -17q-36 -130 -87.5 -207t-108 -102t-125.5 -16t-134 44t-138 86t-133.5 102t-126 99.5t-109.5 71.5q-66 34 -142 40.5t-141 -7.5t-128 -41t-105.5 -54t-71.5 -53q-25 -23 -54.5 -13.5t-19.5 42.5
q41 135 130.5 296t200.5 311.5t243.5 303.5t254 277t236.5 227q16 14 35.5 30.5t31.5 26t25 21t18 17.5t8.5 13.5t-2.5 11.5t-15.5 8t-30 6.5t-47 4.5t-64.5 4q-88 5 -272 12.5t-224 10.5q-27 1 -92 8q-69 6 -106.5 8.5t-103 3t-102 -11.5t-74 -33t-49.5 -62t-1 -99
q3 -22 -12 -24q-14 -2 -17 15z" />
    <glyph glyph-name="bracketleft" unicode="[" horiz-adv-x="661" 
d="M397 1710q35 -1 42 -28q7 -25 -17 -38q-14 -7 -35 -4q-108 16 -166 19q-80 1 -96.5 -14t-19.5 -83q-1 -13 -1 -20q-9 -189 -10.5 -416t1 -372t10.5 -428t10 -387v-23.5t0.5 -22t2 -17t5 -14.5t9.5 -9.5t15.5 -7.5t22.5 -3q97 -9 233 8q32 4 45 -13t1 -36t-41 -20
q-73 -4 -170 -2.5t-162 14.5q-48 9 -58 30t-10 85v20q-1 120 -4.5 419.5t-4 449.5t5.5 389.5t20 449.5q2 24 2 32t4 20.5t5 14t10.5 6t15 4t24.5 1t33 2.5q29 2 56.5 3t58 0t49 -2t58 -3.5t56.5 -3.5z" />
    <glyph glyph-name="backslash" unicode="\" horiz-adv-x="1349" 
d="M1022 86q19 -32 -4 -58q-22 -26 -53 -11q-19 9 -33 36q-231 462 -420 790t-451 695q-10 14 -11 28.5t5.5 23.5t16 13.5t23 -1t24.5 -21.5q129 -174 258.5 -377.5t213 -350t219 -390.5t212.5 -377z" />
    <glyph glyph-name="bracketright" unicode="]" horiz-adv-x="741" 
d="M82 1714l56 3.5t57.5 3.5t49 2t58 0t55.5 -3q14 -1 33.5 -2.5t25 -1t15.5 -4t11.5 -6.5t5 -13.5t3.5 -20.5t1 -32q14 -209 19.5 -447t5 -385.5t-4 -446.5t-4.5 -416q-2 -80 -7 -95q-10 -27 -54 -37q-2 0 -5 -1q-66 -15 -163 -17t-166 2q-37 1 -46 29q-8 26 16 37
q13 6 32 4q136 -17 233 -8q15 1 25 5t15.5 7.5t8 14.5t3 16.5t1 24t0.5 26.5q3 121 11 388.5t11 419.5t1.5 375.5t-12.5 411.5q-4 73 -10 86q-10 25 -56 28q-18 2 -49 1q-68 -3 -166 -18q-40 -5 -51 22q-9 24 14 39q11 7 27 8z" />
    <glyph glyph-name="uni005E" unicode="^" horiz-adv-x="708" 
d="M389 1575q67 -103 101 -192.5t63 -229.5q4 -19 -14 -32t-38.5 -12t-23.5 17q-3 14 -12.5 50.5t-12 47.5t-10.5 39.5t-12 40.5t-12.5 35.5t-16 39.5t-18 38t-23.5 45q-14 25 -32 -11q-7 -14 -25 -58q-65 -159 -129 -243q-21 -27 -43 -50q-13 -13 -32.5 4.5t-10.5 30.5
q73 94 107.5 158.5t64 146t55.5 137.5q12 23 39 18t35 -20z" />
    <glyph glyph-name="underscore" unicode="_" 
d="M614 -182h-170t-93.5 0.5t-69 1t-96 2.5t-173.5 4q-13 0 -17 10t2 20.5t19 10.5q57 -2 108 -4.5t80 -4t52 -2.5t44 -1.5t33.5 -1t42.5 0.5t50.5 1t78.5 1.5t105 2.5q43 4 42 -16q0 -15 -22 -23q-8 -2 -16 -2z" />
    <glyph glyph-name="a" unicode="a" horiz-adv-x="659" 
d="M690 530q-9 -25 -45.5 -139t-64.5 -196t-66 -167.5t-65 -109.5q-5 -5 -15 -10q-41 -14 -63.5 16t-26.5 87.5t-1.5 115t7.5 110.5t4 62q-69 -151 -114 -209q-89 -111 -170 -85q-68 22 -98 131q-33 119 -1 278q19 97 58.5 181t99 145.5t134 72.5t163.5 -39q18 -11 9 -23.5
t-27 -0.5q-55 35 -102 26t-85 -43t-68 -93t-50.5 -123.5t-32.5 -135.5q-35 -199 4 -296q28 -70 82 -39q29 16 61 63q47 68 86 160t61 130.5t52 26.5q19 -7 20.5 -84t-7 -165t-10 -162t10.5 -74q13 -1 38 51t55 136t56 161.5t52 158t31 95.5q5 13 14 15.5t14 -6t0 -22.5z" />
    <glyph glyph-name="b" unicode="b" 
d="M84 657q204 347 292.5 623t78.5 446q-9 184 -64 176q-50 -6 -117 -153q-49 -106 -77 -221q-53 -207 -84.5 -448t-28.5 -423zM84 606q-5 -134 43 -342q31 -134 45 -128q8 4 4 73q-11 173 80 322q70 112 160 150q99 40 163 -38q61 -73 70 -240q2 -8 2 -26q61 58 152 172
q8 9 16 8.5t10 -8.5t-4 -17q-85 -109 -176 -194q-38 -242 -182 -361q-90 -74 -179 -71q-68 1 -85 45q-22 59 66 142q49 46 128 93q78 46 156 107q42 231 -32 312q-49 55 -127 18q-80 -38 -135 -146q-60 -118 -56 -266q4 -129 -35 -131q-30 -3 -66 69q-15 30 -28 70
q-60 180 -71 426t20.5 480t93.5 425q61 192 155 309q86 109 144 74q57 -34 67 -204q10 -179 -85 -470.5t-314 -652.5zM545 252q-57 -43 -133 -88q-146 -88 -173 -162q-17 -46 20 -61q43 -18 109 25q106 67 161 231q9 26 16 55z" />
    <glyph glyph-name="c" unicode="c" horiz-adv-x="499" 
d="M526 539q-130 -432 -292 -572q-103 -90 -186 -33q-79 53 -101 209q-24 165 30 367q65 242 155 295q50 30 85 -12q34 -42 20 -112q-8 -35 -28 -67q-12 -18 -25 -10q-14 9 -2 31q29 46 22 105q-5 43 -25 41q-38 -3 -81 -172q-2 -7 -4 -15q-84 -347 -45 -528
q25 -113 89 -113q77 -2 173 154q99 161 187 444q6 20 20 15t8 -27z" />
    <glyph glyph-name="d" unicode="d" horiz-adv-x="899" 
d="M223 498q-51 111 -109 98q-45 -11 -70 -92q-20 -66 -13 -146q12 -156 83 -197.5t181 48.5q-13 180 14.5 401t81.5 414q27 94 59 153.5t61 73.5t54.5 -6t41.5 -84.5t18 -161.5q2 -121 -20.5 -249.5t-83.5 -269.5t-154 -240q43 -756 396 -22q26 55 140 314q5 11 12.5 12.5
t12 -6t0.5 -18.5q-210 -524 -366 -680q-193 -193 -255 253q-6 39 -10 83q-107 -86 -207 -54t-135 161q-34 123 19 232q40 83 105 105q79 27 140 -59q17 -23 31 -55q8 -18 -6 -22q-13 -4 -21 14zM457 1014q-103 -401 -92 -735q123 141 179.5 339.5t51.5 380.5
q-2 80 -9.5 132.5t-20 71t-29 6.5t-37.5 -62t-43 -133z" />
    <glyph glyph-name="e" unicode="e" horiz-adv-x="479" 
d="M512 535q5 14 0.5 22.5t-14 6.5t-15.5 -15q-29 -65 -66 -139t-90.5 -171t-109 -170.5t-98.5 -97.5q-72 -40 -85 84q-14 134 33 366q19 96 35 132q121 -3 179 61q47 50 41 121q-6 63 -48 82q-39 18 -94 -18q-97 -64 -156 -184.5t-79 -262.5q-18 -137 10 -270
q32 -156 111 -162q26 -2 55 14q50 26 110 101t116.5 177t93.5 174.5t71 148.5zM117 584q86 190 139 200q24 4 31 -30q10 -48 -17 -98q-8 -14 -18 -25q-50 -50 -135 -47z" />
    <glyph glyph-name="f" unicode="f" horiz-adv-x="430" 
d="M16 240q48 2 92 18t75.5 36t67 55.5t56.5 61.5t55.5 70.5t53.5 67.5q8 11 17 10.5t10.5 -9t-5.5 -20.5q-19 -23 -57 -71.5t-59.5 -75t-60 -64t-71.5 -57.5t-80.5 -36t-99.5 -17v-12q54 -71 86.5 -206t40.5 -290q19 -322 -36 -444q-33 -72 -76 -36q-61 50 -98 261
q-17 102 -25 227q-15 251 22 506q-54 9 -67 12q-2 1 -3.5 6.5t-1.5 11.5t2.5 11t8.5 4q30 -10 67 -10q77 459 277 721q19 24 44 18.5t33 -27t-3 -38.5q-200 -231 -265 -684zM4 152q-23 -201 -16 -445q12 -342 58 -417q23 -39 42 19q35 102 23 351q-1 19 -2 39
q-17 297 -105 453z" />
    <glyph glyph-name="g" unicode="g" horiz-adv-x="618" 
d="M639 551q-102 -136 -227 -311q21 -121 31 -299t1 -342q-16 -324 -135 -482q-54 -71 -112.5 -86t-102.5 17t-72.5 96.5t-29.5 144.5q-1 119 24.5 238.5t76 233.5t108 213t135.5 212q-16 128 -39 115l-4 -4q-5 -14 -26.5 -78t-32.5 -91.5t-33 -68.5t-45 -63
q-38 -37 -77.5 -44.5t-72.5 14.5t-56 78.5t-28 139.5q-7 112 25 245t84 212q33 50 74 89t90 65t104.5 20.5t106.5 -47.5q7 -5 10 -11t1 -10.5t-6 -7t-10.5 -2t-13.5 5.5q-151 124 -305 -163q-27 -53 -53.5 -169t-30.5 -214q-8 -182 50 -214q37 -21 85 31q14 16 27.5 35.5
t26 47t21 45t20.5 54t15.5 47.5t16 52t12.5 43q10 35 36 48t51.5 -1t33.5 -49q2 -8 5 -27.5t5 -27.5q5 6 88.5 120.5t122.5 167.5q7 10 16 9.5t12 -8t-3 -19.5zM264 -842q66 143 84 457q17 310 -6 524q-153 -225 -237.5 -430t-81.5 -420q1 -106 53 -179q49 -69 106 -47
q45 18 82 95z" />
    <glyph glyph-name="h" unicode="h" 
d="M831 541q3 12 -2.5 18.5t-13 3.5t-10.5 -14q-85 -333 -160 -537q-58 -154 -108 -179q-40 -19 -64 63q-4 15 -8 34q-25 123 -37 250q-2 16 -6 64t-8.5 90t-11.5 87.5t-18.5 75t-25.5 35.5q-62 27 -180 -264q-46 -111 -52 -121q-17 -30 -25 15q-3 17 -5 47q-14 210 -14 395
q125 169 215 338.5t136 312.5t64.5 258.5t14.5 210.5q-8 175 -87 211q-66 30 -149 -48q-103 -98 -159 -294l-6 -20q-96 -350 -111 -686q-3 -34 -0.5 -175.5t6.5 -298t22.5 -277.5t47.5 -113q31 8 74 96t87 197.5t68 142.5q3 4 6 -2t5.5 -22t5.5 -36t6 -49.5t6 -57.5t7 -64.5
t7 -65.5q24 -189 49 -273q59 -192 159 -87q62 63 112 194q66 175 163 545zM190 1573q37 121 105 230q85 135 137 95q41 -32 53 -176q15 -192 -80.5 -474t-322.5 -597q8 583 108 922z" />
    <glyph glyph-name="i" unicode="i" horiz-adv-x="577" 
d="M-8 934q-1 29 24 37t45 -4q9 -4 19.5 -26.5t10 -47t-20.5 -31.5q-23 -9 -38.5 -8t-23.5 6t-11.5 20.5t-4 24t-0.5 29.5zM88 735q1 29 -20 43t-42 2t-20 -47q0 -6 -2 -43q-38 -851 136 -874q51 -6 120 63q132 132 348 658q5 11 0 18t-14 5t-14 -13q-208 -507 -342 -647
q-82 -87 -121 121q-42 225 -30 690q1 13 1 24z" />
    <glyph glyph-name="j" unicode="j" horiz-adv-x="344" 
d="M365 532q8 11 5 19.5t-12 8.5t-16 -9q-38 -52 -121.5 -163t-109.5 -146q-12 144 -62 508q-4 24 -35 34q-33 11 -44 -11q-6 -10 -3 -25q40 -274 64 -615q-78 -108 -134.5 -201t-107 -201.5t-76 -221.5t-24.5 -226q1 -83 22.5 -142.5t55 -86.5t76.5 -28t86 25.5t84 83
t69 134.5q87 241 33 930q185 244 250 333zM-68 928q0 30 26 36.5t46 -6.5q20 -9 25.5 -47t-21.5 -51q-21 -9 -36 -8.5t-22 4.5t-11.5 19.5t-5 23.5t-1.5 29zM-12 -770q-49 -131 -121 -155q-60 -21 -103 44q-60 90 -39 270q36 300 284 662q12 17 24 35q19 -317 17 -449
q-5 -253 -62 -407z" />
    <glyph glyph-name="k" unicode="k" horiz-adv-x="788" 
d="M20 -293q-10 137 -17 262.5t-11 311.5t0.5 347.5t22 347.5t48 336t84 288t125.5 227q46 56 89 86t75.5 32t59.5 -15.5t41 -56.5t19 -91t-7 -119q-29 -176 -144.5 -444.5t-330.5 -624.5q-4 -84 -4 -238q44 45 128.5 126.5t118.5 115.5q9 9 18.5 8t10.5 -9.5t-8 -18.5
q-19 -19 -66 -63t-73 -69t-63 -62t-66 -69v-84q59 -58 102.5 -98.5t84.5 -72.5t69.5 -50.5t57 -25.5t48 -6t42 17t38.5 36t38.5 57.5t41 74.5t46.5 94q89 182 153 296q7 14 16 15.5t11.5 -7t-3.5 -20.5q-53 -98 -134 -267q-41 -86 -60.5 -124.5t-53.5 -95t-55.5 -71.5
t-57.5 -34t-69.5 -4t-82.5 40.5t-104.5 77.5t-127.5 127q5 -280 24 -481q1 -22 -16.5 -33t-36.5 -3t-21 34zM293 1759q-60 -109 -102.5 -249t-65 -295t-33.5 -284t-16 -280q381 640 444 1012q7 48 7.5 92.5t-8.5 76.5t-22.5 55t-35.5 26.5t-46.5 -8t-56.5 -49.5t-65 -97z
" />
    <glyph glyph-name="l" unicode="l" horiz-adv-x="468" 
d="M309 1706q-118 -171 -183.5 -362.5t-96.5 -421.5q-23 -171 -29.5 -341.5t10.5 -334.5t58 -269q28 -71 58 -105t60 -30.5t57.5 30t55.5 75.5q46 81 93.5 228t67 227t32.5 139q2 10 -4 15.5t-13.5 2.5t-9.5 -14q-39 -196 -114 -402q-96 -266 -164 -257q-72 8 -99 341
q-12 142 -12 348q95 111 166.5 197.5t162.5 204.5t162.5 230.5t116.5 209.5q122 262 83 414q-24 95 -105 110q-95 19 -216 -81q-71 -60 -137 -154zM295 1548q138 266 268 340q90 51 141 -10q55 -67 29 -221q-19 -109 -76 -232q-43 -93 -111 -200t-154.5 -219.5
t-154.5 -195.5t-159 -189q9 183 41 399q49 283 176 528z" />
    <glyph glyph-name="m" unicode="m" horiz-adv-x="858" 
d="M74 213q7 48 23.5 162.5t30 198t30.5 159.5q17 75 36 119.5t38.5 54.5t38.5 -28.5t34 -126.5q31 -193 60 -476q1 -11 2.5 -26t2 -21t2 -10.5t2.5 -3.5t4 9t6 19l9 33q32 121 64 236q18 69 37.5 110t37 49t31.5 -8.5t22.5 -62.5t8.5 -113q2 -258 33 -479q6 -36 12 -56.5
t14 -27t19.5 7t25.5 48.5q26 63 55 167.5t63.5 250t39.5 165.5q5 15 18 12t9 -20q0 -1 -28.5 -117t-44.5 -177.5t-44 -153.5t-49 -142q-25 -59 -53.5 -84.5t-57.5 -1.5t-47 107q-7 33 -13 78t-9.5 81t-6.5 95.5t-3.5 86t-2.5 90t-2 72.5q-3 106 -8 108q-2 1 -7 -12
q0 -1 -30 -96q-39 -133 -61 -239q-13 -54 -28 -87t-30.5 -40t-31.5 24.5t-29 102.5q-11 63 -22 148t-21.5 182t-15.5 137q-4 32 -7.5 54t-7 35.5t-6.5 20.5t-6.5 4.5t-6 -8t-6.5 -22t-7.5 -32.5t-8.5 -44q-18 -91 -43 -261.5t-30 -199.5q-16 -108 -28.5 -160t-31.5 -59
q-32 -13 -43.5 146t-6.5 335.5t15 243.5q3 15 20.5 24.5t33.5 4t14 -28.5q-10 -162 -13 -353.5t5 -203.5z" />
    <glyph glyph-name="n" unicode="n" horiz-adv-x="706" 
d="M59 297q1 7 4.5 24.5t4.5 28.5q55 301 151 469q26 46 57 75t58 34.5t46 -24t21 -93.5q1 -27 -3.5 -98t-11.5 -157.5t-14 -187t-10.5 -193t-2.5 -169t11 -122t29 -44.5q14 0 36 33t48 92.5t52 123.5t55 145t48.5 137.5t41.5 121.5t27 78q4 12 12 14.5t13 -4.5t1 -18
q-231 -681 -309 -753q-115 -103 -134 116q-12 138 18 520q22 270 20 347q-1 37 -5 57.5t-11 26t-17.5 -2.5t-23 -25t-29.5 -46q-94 -160 -146 -459q-14 -81 -26 -119q-10 -32 -30 -36t-33 32q-8 24 -11 62q-9 50 -0.5 248t8.5 247q0 28 29 35q27 7 38 -11q4 -6 3 -14
q-10 -115 -16.5 -287t1.5 -204z" />
    <glyph glyph-name="o" unicode="o" horiz-adv-x="559" 
d="M207 49q80 43 131.5 164.5t58.5 230.5q-60 9 -129 65t-114 126q-70 113 -22 160q36 36 108 16q73 -20 116 -80q76 -103 72 -258q37 -3 72.5 22.5t50.5 65.5q6 14 20.5 10t8.5 -22q-21 -50 -61.5 -79t-90.5 -26q-4 -73 -28 -154.5t-71.5 -158t-107.5 -108.5
q-108 -55 -183 48q-64 89 -72 242q-7 158 52 252q5 7 9 13q10 14 24.5 19.5t26.5 1.5t20.5 -13t8.5 -23.5t-11 -30.5q-53 -94 -48.5 -211t55 -208t104.5 -64zM399 475q0 64 -16.5 130t-50.5 110q-38 53 -103 69q-60 14 -79 -19q-23 -37 30 -116q41 -63 103.5 -115t115.5 -59
z" />
    <glyph glyph-name="p" unicode="p" horiz-adv-x="667" 
d="M78 399q170 383 303 400q43 6 75 -21t46.5 -71.5t24 -97.5t8 -99.5l-2.5 -77.5q104 93 138 131q7 8 15 6.5t10 -9t-5 -15.5q-70 -79 -164 -154q-34 -208 -161 -340q-108 -111 -202 -111q-61 1 -81 49q-24 57 33 131q22 28 55 54q47 38 142.5 102t131.5 91
q30 138 18 228.5t-47 132t-75 22.5q-33 -16 -68 -56.5t-60.5 -82.5t-56.5 -107.5t-45 -99.5t-36 -89q0 -12 -3 -93.5t-5 -129t-7 -138t-10 -157t-13 -146.5t-18 -143q-30 -203 -79 -256q-32 -34 -53 23q-27 75 -15 262q33 375 133 674q10 324 4 516q-1 23 18.5 37t39.5 6.5
t20 -35.5q3 -110 -8 -336zM-41 -479q31 240 41 565l2 12q-81 -271 -100 -565q-9 -171 6 -216q8 -23 20 20q15 51 31 184zM311 90q86 106 119 229q-10 -7 -104 -68.5t-138 -96.5q-81 -66 -85 -126q-3 -41 32 -48q55 -11 137 69q19 18 39 41z" />
    <glyph glyph-name="q" unicode="q" horiz-adv-x="661" 
d="M686 535q-58 -87 -95 -203t-53 -249t-20.5 -238t-3.5 -236q0 -355 -61 -362q-30 -4 -64 77q-33 74 -50 252t-25 434t-9 273q-2 27 -4.5 43t-5.5 21t-6 4t-7.5 -12.5t-8 -24t-9.5 -33.5q-3 -11 -20.5 -75t-30.5 -97q-26 -65 -59 -100.5t-63.5 -37.5t-59.5 17
q-50 35 -76 103t-27 148t19 168t56.5 163t91.5 131.5t118 74.5q86 26 168 -33q17 -10 6.5 -21t-25.5 1q-61 50 -129 20q-69 -31 -127 -125.5t-86.5 -204t-21.5 -219.5t57 -169q18 -19 37 -20.5t43 27t49 85.5q26 60 62 200q15 54 34 76.5t36 14.5t31.5 -39.5t21.5 -79.5
q17 -110 25 -375t12 -315q23 -282 48 -274q23 8 31 286q1 17 3.5 114.5t4 126.5t7 117.5t12.5 129t20.5 116t30.5 123.5t43 107t58 108q6 9 14.5 8.5t11 -7.5t-3.5 -19z" />
    <glyph glyph-name="r" unicode="r" horiz-adv-x="665" 
d="M6 539q69 76 113 159q-125 83 -158 209q-9 41 -6.5 76.5t17 57t34.5 35t44.5 11.5t47 -14.5t43 -43t31.5 -73.5q16 -63 11.5 -129.5t-27.5 -117.5q44 -33 125 -62q56 -22 68 -33q25 -23 30 -101q3 -41 4 -134q0 -143 10 -289q4 -71 20 -72q10 -1 27 25q50 77 195 428
q12 35 29 74q5 12 13.5 13.5t13.5 -5t1 -16.5q-163 -408 -227 -510q-25 -39 -50.5 -51.5t-45 0t-34.5 40.5t-22 68q-12 74 -12 268q1 38 2 78.5t2.5 60t0.5 43t-1 31.5t-6.5 21.5t-11.5 17t-20.5 14.5t-29.5 16.5t-41 20t-53 29.5q-42 -85 -114 -164q-9 -9 -18 -8t-10.5 9.5
t5.5 17.5zM29 920q23 -115 104 -191q18 42 21.5 102t-9.5 117q-11 42 -30 70.5t-36.5 35t-33 -3.5t-20 -44t3.5 -86z" />
    <glyph glyph-name="s" unicode="s" horiz-adv-x="575" 
d="M322 770q-61 72 -135 48q-62 -21 -93 -93q-45 -102 6 -216q29 -67 90 -126q39 -39 60 -68q176 180 323 240q9 3 16 -2.5t5.5 -13.5t-14.5 -13q-140 -57 -312 -233q75 -102 80 -197q10 -139 -70 -197q-58 -42 -127 -19q-64 21 -84 83q-28 86 52 199q34 49 74 92
q-28 36 -84 100q-137 155 -112 305q16 103 98 159q80 56 164 29q50 -16 87 -61q7 -9 3.5 -17t-11.5 -8t-16 9zM289 88q-15 54 -78 143q-31 -33 -70 -86q-81 -113 -40 -189q27 -49 85 -55q60 -6 94 40q38 53 9 147z" />
    <glyph glyph-name="t" unicode="t" horiz-adv-x="497" 
d="M68 1341q8 -52 12 -282q91 -15 200.5 -19.5t238.5 9t238 46.5t194 102t112 165q22 63 8.5 129.5t-67.5 95.5q-19 11 -13 24q6 12 23 3q62 -30 82 -106t-2 -146q-27 -103 -113.5 -177.5t-198 -110.5t-244.5 -52t-247.5 -12t-210.5 20q0 -450 6 -588q19 -399 101 -399
q16 -1 34 14q100 81 279 480q5 11 13.5 12.5t13 -6t-0.5 -19.5q-33 -73 -51 -110q-146 -298 -246 -396q-154 -146 -207 205q-36 241 -21 767q1 44 1 54q-34 7 -52.5 10.5t-55.5 9t-60 6.5t-57.5 1t-56.5 -6t-48.5 -16.5t-43 -27.5t-29.5 -42.5t-17 -58.5q-1 -13 -8.5 -17
t-14 1.5t-5.5 17.5q6 47 26 81t46 53.5t65 29.5t73.5 12.5t82 -2t79.5 -9.5t76 -14q0 7 0.5 41t0 54.5t-1.5 51.5t-3.5 55.5t-7.5 43.5q-6 21 12 37t39.5 13t26.5 -28z" />
    <glyph glyph-name="u" unicode="u" horiz-adv-x="686" 
d="M287 434q39 113 80 254q2 17 4 49t6 43q4 9 22 11t34.5 -7t15.5 -26q-1 -14 -7 -109t-7.5 -123.5t-6 -111t-5 -126t-1.5 -110.5t0.5 -122t5.5 -107q7 -85 46 -21q18 29 36 78q36 95 105.5 313.5t72.5 225.5q3 9 11.5 10.5t14 -5t1.5 -15.5q-2 -6 -71 -223t-107 -314
q-57 -139 -105 -166q-42 -23 -63 62q-5 22 -9 53q-11 91 -6.5 257t11.5 256.5t0 117.5q-16 -51 -52 -154q-33 -100 -66 -170t-62 -105.5t-56 -44.5t-48.5 12.5t-38.5 67t-28.5 118t-15.5 165.5q-6 146 10 391q1 22 21 28t39 -4.5t18 -29.5q-11 -210 -4 -379
q6 -112 15 -182.5t24.5 -106.5t37.5 -21.5t54 81t74 190.5z" />
    <glyph glyph-name="v" unicode="v" horiz-adv-x="624" 
d="M233 141q68 110 111 248q-80 84 -59 258q8 60 29 99t44 47t44 -4t32.5 -54.5t5.5 -103.5q-8 -70 -57 -219q14 -19 35 -21t46 12t48.5 32t48.5 44.5t39 42t27 31.5q6 7 14.5 5.5t11 -9t-5.5 -17.5q-14 -19 -31.5 -39t-42 -44.5t-48.5 -41.5t-52 -32t-52.5 -14.5
t-49.5 10.5q-61 -165 -111 -242q-42 -70 -79.5 -97t-73 -0.5t-62.5 115.5q-74 253 -55 775q1 34 34 43q30 7 45 -13q7 -10 5 -24q-14 -129 1 -380t48 -388q10 -41 19 -62.5t17.5 -29.5t20.5 1.5t23 25t30 46.5zM354 639q-13 -111 11 -186q4 14 15 48t19 66.5t11 65.5
q7 64 -3.5 102t-27.5 14t-25 -110z" />
    <glyph glyph-name="w" unicode="w" horiz-adv-x="940" 
d="M129 195q21 56 42.5 129t34.5 123t35.5 138.5t30.5 119.5q1 20 2 28.5t4 17t5 21.5q2 9 19 13.5t33 2t15 -11.5q-11 -120 -9.5 -266t25 -308.5t62.5 -258.5q24 -59 56.5 -74.5t62.5 5t59 67.5q78 122 113 387q-50 12 -82 60.5t-40.5 108.5t-3.5 120t23 98
q32 68 74.5 65.5t61.5 -75.5q27 -100 2 -347q64 -2 182 177q6 9 14.5 8t12 -8.5t-1.5 -16.5q-23 -34 -40.5 -57.5t-48 -58.5t-62 -54.5t-60.5 -19.5q-35 -258 -113 -396q-38 -65 -86 -93.5t-98.5 -7t-87.5 96.5q-95 197 -95 650q-68 -263 -123 -408q-31 -80 -57 -114
t-46.5 -9.5t-29.5 119.5q-12 114 -13 241.5t5.5 313.5t7.5 246q0 20 17.5 29.5t35 0.5t17.5 -32q1 -108 -2.5 -414t0.5 -344q1 -20 1.5 -34t2 -24.5t2 -18.5t3 -10t3.5 -4t4.5 4.5t5 9t7 16.5t8 21t10.5 28zM672 692q-12 -40 -13 -109.5t15.5 -136.5t48.5 -86q25 232 2 332
q-7 30 -15.5 42.5t-18 3t-19.5 -45.5z" />
    <glyph glyph-name="x" unicode="x" horiz-adv-x="911" 
d="M936 524q-31 -50 -86.5 -153.5t-105.5 -184.5t-103 -139q-33 -37 -60 -61t-57 -38.5t-56 -10t-52 31.5t-49 78q-41 95 -72 264q-168 -229 -285 -293q-11 -5 -18.5 -1t-6 13t12.5 15q112 62 289 305q-43 238 -60 294q-25 83 -52 81q-5 0 -11 -4q-8 -5 -16 -12.5t-17 -20
t-16 -22.5t-18.5 -29t-18 -30.5t-20.5 -36.5t-21 -38q-6 -12 -15 -13t-13 7t1 19q154 277 236 231q19 -10 35 -39.5t27.5 -74.5t18.5 -80t15 -84t10 -58q9 12 52 75t72 104t78.5 104.5t86 102.5t78.5 70t72 34q12 1 12 -11q0 -17 -15 -20q-31 -4 -77 -43.5t-100.5 -108
t-95 -123.5t-93.5 -132.5t-64 -92.5q1 -5 7.5 -42t12.5 -66t15.5 -69.5t22 -77t26.5 -64.5q19 -41 40.5 -59.5t44.5 -16t46 18.5t50 47q68 75 169.5 259.5t116.5 207.5q12 20 25 10q11 -9 2 -23z" />
    <glyph glyph-name="y" unicode="y" horiz-adv-x="669" 
d="M688 530q-24 -36 -74 -113.5t-73 -113.5q18 -133 26.5 -269t7.5 -294.5t-27 -302.5t-77 -242q-77 -147 -176 -164q-83 -14 -144 68q-74 101 -64 278q2 33 7 66q28 180 119.5 366.5t243.5 419.5q-18 144 -21 156q-12 47 -31 4q-13 -27 -30 -88q-51 -173 -127 -280
q-97 -137 -167 -46q-36 47 -63 154q-36 133 -29.5 279.5t60.5 349.5q8 32 43.5 42t48.5 -13q7 -13 0 -35q-83 -274 -37 -607q20 -149 72 -139q54 12 125 179q28 65 45 124q70 237 121 223q42 -12 68 -184q21 31 65 99.5t64 99.5q6 9 14.5 8.5t11.5 -8t-2 -17.5zM416 -776
q120 304 47 958q-141 -218 -227 -396t-111 -347q-25 -170 30 -288q41 -86 102 -92q75 -6 137 116q12 23 22 49z" />
    <glyph glyph-name="z" unicode="z" horiz-adv-x="681" 
d="M49 586q91 134 132.5 239.5t39.5 173.5q-1 98 -49 27q-34 -52 -56 -116q0 -3 -1 -5q-27 -80 -45.5 -177.5t-20.5 -141.5zM51 537q3 -50 21.5 -71t50 -15.5t62.5 19t74 34.5t71 28q88 23 124 4.5t26 -67t-62 -113.5q-38 -46 -121 -125q-14 -14 -29.5 -27.5t-18.5 -17.5
t-7.5 -9t1.5 -9t11 -9t18.5 -17t26.5 -27q37 -42 70 -107q34 58 150 246t163 272q5 7 12.5 7t12.5 -6.5t0 -14.5q-47 -83 -164 -274.5t-158 -262.5q51 -109 66 -236t-16.5 -254.5t-110.5 -213.5q-73 -76 -120 -64.5t-66.5 81.5t-4.5 165q17 110 65 221.5t124 249.5
q-35 79 -107 164q-20 24 -29 35.5t-15 25t-6 18t6.5 15.5t14.5 17.5t25.5 23.5t32.5 33q188 200 150 220q-15 8 -70 -9q-22 -7 -58.5 -19.5t-57 -19t-51.5 -13.5t-49.5 -6.5t-41.5 7.5t-37.5 23.5t-27.5 44.5t-21 69q-15 76 4.5 191.5t62.5 209.5q46 100 108 135
q57 32 83 -20q12 -26 14 -70q2 -75 -47 -194.5t-154 -267.5zM272 -690q59 74 85 177.5t19.5 207t-40.5 194.5q-69 -125 -113 -229.5t-61 -208.5q-14 -90 2 -153q23 -91 99 1q5 5 9 11z" />
    <glyph glyph-name="uni007B" unicode="{" horiz-adv-x="894" 
d="M109 815q110 -108 168 -228.5t73 -275.5q4 -73 5.5 -147.5t-1 -145t8 -131t33.5 -104.5t75.5 -66t132.5 -16q43 4 45 -16q2 -16 -23 -25q-10 -4 -22 -4q-94 -6 -160.5 17t-103.5 68t-57 106.5t-26.5 136.5t-7.5 153t-3.5 160.5t-11 155.5t-34.5 141t-69 115
q-81 89 -88 98q-43 51 -43.5 83.5t43.5 76.5q11 10 53 44t74 66q42 41 64 107t27.5 133.5t9.5 141t19.5 135t49 110.5t105.5 73.5t182 16.5q40 -3 39 -22q0 -16 -23 -20q-8 -2 -16 -1q-53 5 -94 -2.5t-68 -19.5t-45.5 -43.5t-27.5 -53.5t-13.5 -71t-5 -75.5t-0.5 -85.5v-30
q1 -83 -27.5 -157.5t-84 -135.5t-87.5 -89t-87 -69q-9 -7 -13 -10q-8 -6 -11 -12.5t-1.5 -14.5t4.5 -15t10 -15.5t11.5 -14t12 -13z" />
    <glyph glyph-name="uni007C" unicode="|" horiz-adv-x="360" 
d="M143 -6q-3 -48 -33 -58q-27 -9 -43 21q-11 21 -10 53q4 74 7 155.5t5 149t3 163t1.5 153t-1 165t-2 153t-3 164t-3 151t-4 160.5t-3.5 149q0 28 25.5 47.5t50.5 11t25 -50.5q1 -106 4.5 -388.5t3.5 -419.5t-5 -360.5t-18 -418.5z" />
    <glyph glyph-name="uni007D" unicode="}" horiz-adv-x="911" 
d="M584 823q42 42 48 61q6 21 -11 34q-97 73 -139 114q-163 159 -163 346q-1 64 0.5 124t-11 110t-36.5 86t-76 52.5t-130 8.5q-28 -3 -36 15q-8 17 18 25q8 2 20 3q97 7 164.5 -11.5t102.5 -55t56 -89t25 -110.5t10 -122.5t11.5 -122.5t27 -113.5t59.5 -92.5q33 -33 78 -70
t49 -40q44 -44 43.5 -76.5t-43.5 -83.5q-13 -15 -43.5 -48t-46.5 -50q-43 -47 -68.5 -115t-34 -141t-10.5 -155.5t-3 -160.5t-7.5 -153t-27 -136.5t-57 -106.5t-103 -68t-160.5 -17q-34 1 -44 22q-9 17 16 22q11 2 26 1q81 -6 133.5 16t75.5 66t34 104.5t8.5 131t-1 145
t5.5 147.5q15 155 72.5 275.5t167.5 228.5z" />
    <glyph glyph-name="uni007E" unicode="~" horiz-adv-x="1552" 
d="M188 670q54 58 116.5 80.5t124 14t127.5 -33t130.5 -58t128.5 -65t126 -49.5t119.5 -15.5t112.5 41t101 115.5q19 31 48.5 35t40 -17.5t-4.5 -55.5q-55 -96 -119 -148.5t-128.5 -63t-133 2.5t-137 44t-136 66.5t-134 66t-126 46t-117.5 2t-104 -61.5q-26 -28 -47 -15
t-6 44q6 13 18 25z" />
    <glyph glyph-name="uni00A3" unicode="&#xa3;" horiz-adv-x="1452" 
d="M659 1223q24 150 -32 249q-39 67 -90 69q-56 1 -86 -79q-39 -102 -15 -295q4 -31 14 -105t15.5 -118.5t12 -110t9.5 -120.5q6 0 406 16q42 2 54.5 -15.5t-3.5 -36t-45 -18.5q-103 0 -199.5 -1t-124 -1.5t-83.5 0.5q7 -316 -89 -499q62 -20 133.5 -57t123 -67.5t110 -58.5
t109 -33.5t105 10.5t111.5 71.5t117 150.5q6 10 12.5 14.5t11 3t7.5 -5.5t2 -12t-6 -16q-57 -87 -114.5 -143t-108 -79.5t-106 -26.5t-103 11t-104 38t-105 50.5t-110 52.5t-113.5 39q-127 -136 -197 -126q-39 6 -40 53q-2 55 43 102q52 52 132 49q87 163 80 484
q-74 2 -354 20q-20 0 -25.5 16t4 32t25.5 15q277 -24 348 -28q-4 81 -12.5 171t-20.5 192t-16 145q-26 265 62 362q57 62 136 31q74 -30 120 -121q64 -127 28 -285q-4 -23 -17 -23t-13 25q0 4 1 9z" />
    <glyph glyph-name="uni00A5" unicode="&#xa5;" horiz-adv-x="1538" 
d="M682 719q17 1 129 5t227 7q42 1 54 -15.5t-4.5 -33t-45.5 -16.5q-98 1 -175 1t-134.5 -0.5t-75.5 -0.5q-6 -176 -6 -230q8 0 129.5 5.5t257.5 9.5q42 1 54 -15.5t-4.5 -33.5t-45.5 -17h-395q0 -7 2 -98t2 -246q1 -38 -23.5 -49.5t-49.5 3.5t-25 42q14 299 14 348
q-273 8 -389 12q-22 1 -27 16.5t5 30t26 13.5q126 -5 244 -11.5t141 -7.5q0 111 2 230q-19 0 -391 10q-22 1 -27 16t5 30t26 15q116 -4 230.5 -10.5t140.5 -7.5q-100 260 -216.5 457.5t-279.5 386.5q-18 18 -3 36q16 19 41 2q4 -3 9 -8q102 -121 166 -204t119.5 -174
t93 -162.5t108.5 -215.5q21 -42 32 -65q276 355 448 854q8 23 31 20q22 -3 23 -25q1 -10 -3 -21q-119 -337 -176 -451t-264 -432z" />
    <glyph glyph-name="uni00A9" unicode="&#xa9;" horiz-adv-x="827" 
d="M485 1223q-34 67 -94 62q-57 -4 -93 -66q-44 -76 -22 -185q13 -66 47.5 -109t80 -38.5t81.5 69.5q8 9 16.5 5.5t2.5 -15.5q-41 -84 -122.5 -89t-139.5 74.5t-37 205.5q14 78 73 126t126 40.5t102 -74.5q3 -9 0 -14t-9 -3t-12 11zM612 829q82 111 82 293
q-1 79 -29.5 146.5t-73.5 112.5t-104 70t-120.5 24.5t-125 -30.5t-114.5 -89q-68 -78 -89 -186t10.5 -213.5t109.5 -174.5q102 -86 238 -71t216 118zM627 819q-56 -72 -142 -105.5t-178 -20t-162 72.5q-83 72 -116 182.5t-10.5 224t94.5 195.5q54 62 121 94t132 33
t128.5 -25.5t111 -73.5t78 -118.5t31.5 -155.5q0 -185 -88 -303z" />
    <glyph glyph-name="uni00AB" unicode="&#xab;" horiz-adv-x="1181" 
d="M123 1004q155 258 230 355.5t288 311.5q21 21 45 -15.5t17 -68.5q-2 -9 -7 -14q-253 -253 -440 -580q-17 -31 -50 -95t-40 -77q195 -268 241 -340q84 -131 189 -363q28 -62 70 -159q16 -35 -15 -71q-24 -28 -43 -20q-7 3 -10 11q-98 224 -205 403.5t-250 352.5
q-18 22 -41 48.5t-34 37t-22.5 30.5t-15 26.5t-2.5 28t5.5 32t19 41.5t28 54t42.5 71zM451 844q184 -293 230 -378q74 -138 176 -407q21 -53 50 -131q13 -35 -18 -68q-25 -26 -44 -16q-6 3 -9 11q-90 244 -192.5 439.5t-246.5 391.5q-69 95 -80 122q-16 40 9 86q8 15 85 125
q7 10 13 19q161 234 240.5 324t298.5 280q23 18 45.5 -22.5t13.5 -70.5q-3 -9 -8 -13q-165 -140 -297.5 -302t-265.5 -390z" />
    <glyph glyph-name="uni00AE" unicode="&#xae;" horiz-adv-x="794" 
d="M618 866q-87 -111 -231 -127t-250 76q-83 71 -116 181t-11 223.5t94 197.5q54 61 121 92.5t132 32t128 -26t111 -73.5t78 -117.5t31 -153.5q0 -188 -87 -305zM473 856q-45 21 -101 67.5t-85 88.5q-1 -27 -11 -154q0 -7 -8 -10.5t-15.5 0t-6.5 14.5q15 251 -13 529
q-1 13 9.5 20t21.5 3t12 -19q7 -40 7 -70q40 101 104 115q41 9 72.5 -24t40.5 -87q11 -70 -18.5 -127t-78.5 -91.5t-116 -59.5q24 -54 89 -105.5t107 -73.5q8 -6 8.5 -12.5t-4.5 -7.5t-14 4zM449 1268q0 52 -25 93t-51 46q-25 5 -54 -53.5t-32 -83.5v-199q162 57 162 197z
M602 879q85 113 82 292q-1 78 -29 145t-73 112t-104 69.5t-120.5 24t-124.5 -30.5t-114 -88q-68 -79 -89 -187t10.5 -213.5t109.5 -173.5q100 -86 236 -70.5t216 120.5z" />
    <glyph glyph-name="uni00B1" unicode="&#xb1;" horiz-adv-x="1071" 
d="M397 979q0 -118 1 -219t1 -113q21 0 52.5 1t87.5 3t108 4q31 1 39.5 -16t-4.5 -34t-35 -17h-250q-1 -29 -14 -312q-1 -17 -19 -21.5t-35 3.5t-16 21q13 240 11 309q-24 1 -112 5.5t-183 8.5q-15 1 -19 19.5t3 36t20 16.5q97 -8 183 -16t103 -9q-17 161 -22 326
q-1 34 24 44.5t50.5 -3t25.5 -37.5zM645 117h-173t-95 -1t-69.5 0.5t-97 4.5t-177.5 10q-14 2 -18 20.5t3 35.5t19 16q290 -22 305 -22t301 12q31 1 40 -18t-3.5 -38.5t-34.5 -19.5z" />
    <glyph glyph-name="uni00BB" unicode="&#xbb;" horiz-adv-x="1220" 
d="M907 991q26 -43 37.5 -62t26 -49t20 -39t9.5 -31t4.5 -25.5t-6.5 -22.5t-11 -23t-21 -25t-25 -30q-32 -36 -52 -59q-144 -175 -251 -353t-202 -399q-11 -25 -40 -4q-31 22 -33 57q-1 13 4 25q80 181 119 266t97 183.5t96 152.5t148 205q24 33 37 51q-40 85 -88 172
q-183 320 -438 575q-18 18 0 64q16 40 38 42q9 1 17 -7q152 -154 224 -237.5t125.5 -162.5t164.5 -264zM129 -78q90 242 142.5 361.5t97.5 199t175 284.5q26 42 40 64q-134 229 -265.5 390.5t-295.5 300.5q-19 15 -3 62q15 43 38 47q8 1 16 -5q219 -191 298.5 -281
t235.5 -319q16 -22 42 -60q74 -103 73 -137.5t-80 -143.5l-6 -9q-145 -197 -246.5 -391t-191.5 -437q-8 -23 -36 -7q-31 18 -37 51q-3 16 3 30z" />
    <glyph glyph-name="uni00D7" unicode="&#xd7;" horiz-adv-x="1155" 
d="M872 901q-89 -89 -168.5 -170t-119.5 -121t-68 -67q37 -37 279 -258q20 -19 24 -38t-6 -30.5t-25.5 -18.5t-34.5 -3.5t-32 16.5q-145 143 -270 268q-72 -68 -351 -317q-19 -17 -43.5 -2t-32 40t4.5 42q264 228 344 317q-60 62 -301 334q-15 17 0.5 41.5t39.5 33.5t38 -1
q98 -115 182.5 -217.5t99.5 -120.5q6 8 34.5 43t47.5 58.5t55 65.5t83.5 94.5t105.5 115.5q22 23 46 25.5t42 -12.5t30 -35.5t11.5 -44t-15.5 -38.5z" />
    <glyph glyph-name="uni00F7" unicode="&#xf7;" horiz-adv-x="884" 
d="M295 993q0 21 34.5 31t70.5 1.5t40 -34.5q1 -11 3.5 -34.5t4 -41.5t3 -42t0 -41.5t-5 -34.5t-12 -27t-21.5 -12q-35 -10 -59 -4t-39 15t-22 29t-9.5 38.5t-1 43t4.5 43.5t6 39.5t3 30.5zM295 350q0 22 34.5 32t70.5 1t40 -35q1 -11 3.5 -34.5t4 -41.5t3 -42t0 -41.5
t-5 -34.5t-12 -27t-21.5 -12q-45 -9 -74 0.5t-40.5 29.5t-15 51t0 56.5t8 56t4.5 41.5zM674 526q20 0 31.5 24t2 48t-39.5 23h-1h-1h-1h-1h-1h-1h-2h-1h-1h-1h-1l-1 -1h-1h-1h-1h-1h-1h-1h-1h-1h-1h-1h-1h-2h-1h-1h-1h-1h-1h-1h-1h-1h-1l-1 -1h-1h-1h-1h-1h-1h-1h-1h-1h-1
h-1h-1h-1h-1h-1h-1h-1h-1h-1h-1h-1h-1h-1h-1l-1 -1h-1q-224 -9 -294 -5q-23 1 -81 6q-95 7 -171 12q-27 2 -37 -19.5t0.5 -44t34.5 -24.5q80 -4 157 -8t97.5 -5t75 -2.5t107.5 -1.5h178z" />
    <glyph glyph-name="uni02DC" unicode="&#x2dc;" horiz-adv-x="669" 
d="M18 1384q34 38 75.5 47t81.5 -4t82.5 -35.5t83.5 -42t78.5 -28t74 10t65.5 69.5q15 27 35.5 17.5t5.5 -38.5q-34 -63 -76 -90t-84 -22t-86 24t-87.5 43.5t-83.5 42t-78.5 15t-67.5 -34.5q-14 -17 -25 -8q-13 11 4 31q1 2 2 3z" />
    <glyph glyph-name="uni2018" unicode="&#x2018;" horiz-adv-x="253" 
d="M29 1282q-22 94 -7 193.5t62 199.5q13 30 34.5 20.5t18.5 -32.5q-61 -213 -16 -352q13 -38 -6.5 -60.5t-48 -14.5t-37.5 46z" />
    <glyph glyph-name="uni2019" unicode="&#x2019;" horiz-adv-x="307" 
d="M205 1620q22 -92 7.5 -189.5t-58.5 -197.5q-14 -28 -36.5 -18.5t-17.5 32.5q57 217 15 344q-11 37 7.5 60t46 15t36.5 -46z" />
    <glyph glyph-name="uni201C" unicode="&#x201c;" horiz-adv-x="395" 
d="M14 1286q-43 158 54 375q13 27 32.5 17.5t16.5 -29.5q-56 -211 -17 -336q13 -36 -5.5 -57.5t-45.5 -13.5t-35 44zM164 1290q-46 159 51 377q13 27 33.5 17t15.5 -31q-54 -210 -14 -336q12 -36 -6 -57t-45 -13t-35 43z" />
    <glyph glyph-name="uni201D" unicode="&#x201d;" horiz-adv-x="471" 
d="M362 1632q21 -93 5.5 -193t-60.5 -200q-13 -29 -35.5 -18.5t-17.5 32.5q59 218 16 351q-6 23 -2 41.5t17 26.5t27.5 8.5t28.5 -12.5t21 -36zM207 1628q21 -93 5.5 -193t-60.5 -200q-8 -20 -22.5 -22t-24.5 9.5t-7 24.5q60 221 17 350q-12 38 6.5 61t46.5 15.5t39 -45.5z
" />
    <glyph glyph-name="uni201E" unicode="&#x201e;" horiz-adv-x="395" 
d="M250 4q18 -79 4.5 -166t-53.5 -174q-10 -24 -29 -15.5t-16 27.5q52 186 14 304q-9 33 7.5 53t40.5 12.5t32 -41.5zM115 0q18 -80 5 -166t-52 -174q-12 -25 -31.5 -16.5t-16.5 28.5q52 188 15 303q-9 32 7.5 52.5t40.5 13.5t32 -41z" />
    <glyph glyph-name="uni2039" unicode="&#x2039;" horiz-adv-x="829" 
d="M119 989q152 256 229 355.5t293 320.5q16 16 30.5 11.5t15 -20t-10.5 -30.5q-219 -219 -459 -643q-45 -74 -92 -176q104 -142 162 -227.5t115.5 -192t93 -184.5t117.5 -266q18 -42 28 -64q16 -37 -5 -46q-17 -7 -31 14q-3 4 -5 9q-97 224 -206 405.5t-255 360.5
q-20 24 -53 61q-21 24 -30 34t-19.5 28.5t-13 25.5t-0.5 28t7 32t19.5 41.5t28 53t41.5 69.5z" />
    <glyph glyph-name="uni203A" unicode="&#x203a;" horiz-adv-x="909" 
d="M569 993q37 -63 53.5 -91t31 -62.5t15 -47t-7 -35.5t-20.5 -37.5t-39 -44.5q-33 -37 -53 -61q-146 -178 -255.5 -360.5t-209.5 -411.5q-11 -27 -31 -25q-19 1 -16 28q1 9 6 20q159 362 204 451q87 171 242 389q34 46 76 104q-54 109 -94 178q-246 432 -465 651
q-21 21 -5.5 42.5t42.5 -3.5q120 -122 178 -184.5t120 -144t101.5 -145.5t126.5 -210z" />
    <glyph glyph-name="uni20AC" unicode="&#x20ac;" horiz-adv-x="1484" 
d="M1212 1161q-2 206 -117 286q-96 67 -227 21q-139 -48 -242 -195q-99 -140 -132 -331q26 1 64.5 3.5t109 7t135.5 8.5q38 3 49.5 -19.5t-3.5 -46t-42 -23.5h-324q-4 -58 -4 -84q-3 -94 6 -176q28 1 128.5 8.5t189.5 12.5q38 2 49.5 -20t-3.5 -45t-42 -23q-96 0 -196 -1
t-117 -1q44 -254 182 -391q109 -109 231 -99q123 9 200 135q29 47 48 107q9 32 26 35q13 3 16 -14q3 -16 -7 -42q-38 -110 -110.5 -178t-158 -87t-179 7.5t-174.5 92t-145.5 180.5t-90.5 260q-106 7 -307 22q-18 2 -22.5 22.5t4 39.5t22.5 18q79 -9 171 -19.5t119 -13.5
q-10 101 -4 205q0 20 4 56q-18 1 -64.5 4.5t-105 7.5t-124.5 8q-18 2 -22.5 22.5t4 40t22.5 17.5q90 -9 186 -20t115 -13q48 261 219 435q140 141 304 169q165 29 276 -70q117 -105 133 -323q3 -44 -18 -51q-18 -6 -27 23q-5 13 -5 32z" />
    </font>
</defs>
</svg>
